<svg xmlns="http://www.w3.org/2000/svg" xmlns:xlink="http://www.w3.org/1999/xlink" width="2000" zoomAndPan="magnify" viewBox="0 0 1500 1499.999933" height="2000" preserveAspectRatio="xMidYMid meet" version="1.0"><defs><g/><clipPath id="e6385bc06e"><path d="M 1297 121 L 1500 121 L 1500 341 L 1297 341 Z M 1297 121 " clip-rule="nonzero"/></clipPath><clipPath id="3410863b53"><rect x="0" width="1500" y="0" height="556"/></clipPath><clipPath id="9f8e36a9cc"><path d="M 958 883 L 1065.898438 883 L 1065.898438 991 L 958 991 Z M 958 883 " clip-rule="nonzero"/></clipPath><clipPath id="e2e031afc5"><path d="M 951.898438 882 L 1059 882 L 1059 990 L 951.898438 990 Z M 951.898438 882 " clip-rule="nonzero"/></clipPath><clipPath id="5bd9332493"><path d="M 259 926 L 479 926 L 479 1084 L 259 1084 Z M 259 926 " clip-rule="nonzero"/></clipPath><clipPath id="f043e3233e"><path d="M 311.433594 867.808594 L 486.433594 921.320312 L 422.171875 1131.464844 L 247.171875 1077.953125 Z M 311.433594 867.808594 " clip-rule="nonzero"/></clipPath><clipPath id="7119514c20"><path d="M 311.433594 867.808594 L 486.433594 921.320312 L 422.171875 1131.464844 L 247.171875 1077.953125 Z M 311.433594 867.808594 " clip-rule="nonzero"/></clipPath><clipPath id="2feaa2e2b6"><path d="M 254 915 L 475 915 L 475 1073 L 254 1073 Z M 254 915 " clip-rule="nonzero"/></clipPath><clipPath id="0f1d4cdd13"><path d="M 311.433594 867.808594 L 486.433594 921.320312 L 422.171875 1131.464844 L 247.171875 1077.953125 Z M 311.433594 867.808594 " clip-rule="nonzero"/></clipPath><clipPath id="55f8e7bba6"><path d="M 311.433594 867.808594 L 486.433594 921.320312 L 422.171875 1131.464844 L 247.171875 1077.953125 Z M 311.433594 867.808594 " clip-rule="nonzero"/></clipPath><clipPath id="32872c4b18"><path d="M 1021 426 L 1236 426 L 1236 579 L 1021 579 Z M 1021 426 " clip-rule="nonzero"/></clipPath><clipPath id="58f2947ca1"><path d="M 1073.554688 368.464844 L 1242.933594 422.371094 L 1178.335938 625.339844 L 1008.957031 571.433594 Z M 1073.554688 368.464844 " clip-rule="nonzero"/></clipPath><clipPath id="591fb07b48"><path d="M 1073.554688 368.464844 L 1242.933594 422.371094 L 1178.335938 625.339844 L 1008.957031 571.433594 Z M 1073.554688 368.464844 " clip-rule="nonzero"/></clipPath><clipPath id="a43ec5f519"><path d="M 1016 415 L 1231 415 L 1231 568 L 1016 568 Z M 1016 415 " clip-rule="nonzero"/></clipPath><clipPath id="54262877c7"><path d="M 1073.554688 368.464844 L 1242.933594 422.371094 L 1178.335938 625.339844 L 1008.957031 571.433594 Z M 1073.554688 368.464844 " clip-rule="nonzero"/></clipPath><clipPath id="3a2f21d850"><path d="M 1073.554688 368.464844 L 1242.933594 422.371094 L 1178.335938 625.339844 L 1008.957031 571.433594 Z M 1073.554688 368.464844 " clip-rule="nonzero"/></clipPath></defs><g transform="matrix(1, 0, 0, 1, 0, 436)"><g clip-path="url(#3410863b53)"><g fill="#1e1d23" fill-opacity="1"><g transform="translate(16.190217, 251.70133)"><g><path d="M 12.46875 -2.953125 C 11.039062 -4.066406 9.921875 -5.375 9.109375 -6.875 C 8.296875 -8.375 7.832031 -9.695312 7.71875 -10.84375 C 7.601562 -12 7.773438 -13.398438 8.234375 -15.046875 C 8.703125 -16.691406 9.363281 -18.609375 10.21875 -20.796875 C 11.070312 -22.984375 12.078125 -25.375 13.234375 -27.96875 C 14.398438 -30.5625 15.664062 -33.195312 17.03125 -35.875 L 21.140625 -43.84375 C 22.578125 -46.457031 23.992188 -48.894531 25.390625 -51.15625 C 18.753906 -48.269531 13.878906 -45.617188 10.765625 -43.203125 C 7.648438 -40.785156 5.242188 -39.003906 3.546875 -37.859375 C 1.859375 -36.722656 0.425781 -36.097656 -0.75 -35.984375 C -2.664062 -35.796875 -3.742188 -36.898438 -3.984375 -39.296875 C -4.328125 -42.742188 -2.960938 -47.148438 0.109375 -52.515625 C 3.304688 -58.085938 6.828125 -61.691406 10.671875 -63.328125 C 14.515625 -64.960938 18.828125 -66.582031 23.609375 -68.1875 C 28.398438 -69.789062 33.398438 -71.269531 38.609375 -72.625 C 49.921875 -75.5625 60.507812 -77.523438 70.375 -78.515625 C 81.65625 -79.640625 88.96875 -79.296875 92.3125 -77.484375 C 95.28125 -75.867188 97.429688 -73.453125 98.765625 -70.234375 C 99.410156 -68.660156 99.820312 -66.941406 100 -65.078125 C 100.1875 -63.210938 99.476562 -61.1875 97.875 -59 C 96.28125 -56.8125 94.070312 -54.675781 91.25 -52.59375 C 85.957031 -48.59375 78.878906 -44.757812 70.015625 -41.09375 C 75.304688 -40.613281 79.019531 -39.828125 81.15625 -38.734375 C 83.300781 -37.648438 84.847656 -36.503906 85.796875 -35.296875 C 86.753906 -34.085938 87.332031 -32.492188 87.53125 -30.515625 C 87.726562 -28.535156 87.070312 -26.410156 85.5625 -24.140625 C 84.050781 -21.878906 81.863281 -19.679688 79 -17.546875 C 76.144531 -15.421875 72.722656 -13.410156 68.734375 -11.515625 C 64.742188 -9.628906 60.375 -7.925781 55.625 -6.40625 C 45.726562 -3.195312 35.316406 -1.046875 24.390625 0.046875 C 19.648438 0.523438 15.675781 -0.472656 12.46875 -2.953125 Z M 37.328125 -44.578125 C 33.054688 -35.117188 31.09375 -28.675781 31.4375 -25.25 C 31.59375 -23.664062 32.5625 -22.257812 34.34375 -21.03125 C 36.03125 -19.882812 37.71875 -19.394531 39.40625 -19.5625 C 41.09375 -19.738281 42.941406 -20.003906 44.953125 -20.359375 C 46.960938 -20.722656 49.019531 -21.148438 51.125 -21.640625 C 53.226562 -22.128906 55.289062 -22.660156 57.3125 -23.234375 C 59.332031 -23.816406 61.128906 -24.4375 62.703125 -25.09375 C 66.171875 -26.507812 67.851562 -27.769531 67.75 -28.875 C 67.550781 -30.863281 64.613281 -32.234375 58.9375 -32.984375 C 54.332031 -33.578125 49.984375 -33.671875 45.890625 -33.265625 C 44.304688 -33.097656 43.140625 -33.296875 42.390625 -33.859375 C 41.648438 -34.421875 41.238281 -35.125 41.15625 -35.96875 C 41.070312 -36.8125 41.398438 -37.734375 42.140625 -38.734375 C 42.890625 -39.734375 43.960938 -40.59375 45.359375 -41.3125 C 56.742188 -45.414062 66.175781 -49.679688 73.65625 -54.109375 C 77.320312 -56.273438 79.109375 -57.828125 79.015625 -58.765625 C 78.878906 -60.097656 78.375 -61.140625 77.5 -61.890625 C 75.945312 -63.222656 74.3125 -63.800781 72.59375 -63.625 C 70.875 -63.457031 68.921875 -63.195312 66.734375 -62.84375 C 64.554688 -62.488281 62.207031 -62.039062 59.6875 -61.5 C 54.132812 -60.394531 48.660156 -59.050781 43.265625 -57.46875 C 42.628906 -55.78125 41.757812 -53.851562 40.65625 -51.6875 Z M 37.328125 -44.578125 "/></g></g></g><g fill="#1e1d23" fill-opacity="1"><g transform="translate(121.436088, 241.15679)"><g><path d="M 67.53125 -45.046875 C 69.175781 -45.210938 70.09375 -44.367188 70.28125 -42.515625 C 70.40625 -41.273438 70.140625 -39.675781 69.484375 -37.71875 C 68.835938 -35.757812 67.800781 -33.882812 66.375 -32.09375 C 64.957031 -30.3125 63.316406 -28.4375 61.453125 -26.46875 C 59.585938 -24.507812 57.378906 -22.429688 54.828125 -20.234375 C 52.285156 -18.035156 49.457031 -15.820312 46.34375 -13.59375 C 43.226562 -11.375 39.894531 -9.320312 36.34375 -7.4375 C 28.457031 -3.238281 20.664062 -0.753906 12.96875 0.015625 C 7.09375 0.597656 1.800781 -0.414062 -2.90625 -3.03125 C -7.832031 -5.769531 -10.523438 -9.425781 -10.984375 -14 C -11.703125 -21.1875 -8.519531 -28.40625 -1.4375 -35.65625 C 4.675781 -41.882812 12.101562 -46.984375 20.84375 -50.953125 C 26.15625 -53.367188 30.71875 -54.765625 34.53125 -55.140625 C 37.632812 -55.453125 40.320312 -54.957031 42.59375 -53.65625 C 45.03125 -52.226562 46.390625 -50.117188 46.671875 -47.328125 C 47.109375 -42.972656 44.132812 -37.800781 37.75 -31.8125 C 36.738281 -30.84375 35.816406 -30.019531 34.984375 -29.34375 L 33.265625 -27.921875 C 30.054688 -25.171875 25.097656 -21.945312 18.390625 -18.25 C 20.671875 -17.332031 22.75 -16.96875 24.625 -17.15625 C 26.5 -17.34375 28.15625 -17.734375 29.59375 -18.328125 C 31.039062 -18.929688 32.664062 -19.738281 34.46875 -20.75 C 36.28125 -21.757812 38.203125 -22.945312 40.234375 -24.3125 C 42.273438 -25.6875 44.328125 -27.171875 46.390625 -28.765625 C 51.003906 -32.316406 54.957031 -35.875 58.25 -39.4375 C 59.957031 -41.375 62.222656 -43.003906 65.046875 -44.328125 C 65.972656 -44.734375 66.800781 -44.972656 67.53125 -45.046875 Z M 12.09375 -24.859375 L 14.78125 -26.59375 C 15.664062 -27.164062 16.453125 -27.695312 17.140625 -28.1875 C 23.679688 -32.863281 27.382812 -35.710938 28.25 -36.734375 C 29.113281 -37.765625 29.523438 -38.457031 29.484375 -38.8125 C 29.453125 -39.175781 29.3125 -39.585938 29.0625 -40.046875 C 28.820312 -40.515625 28.503906 -40.921875 28.109375 -41.265625 C 27.191406 -42.140625 26.269531 -42.53125 25.34375 -42.4375 C 24.414062 -42.34375 23.40625 -42.066406 22.3125 -41.609375 C 21.226562 -41.160156 20.148438 -40.578125 19.078125 -39.859375 C 18.003906 -39.148438 16.984375 -38.316406 16.015625 -37.359375 C 15.054688 -36.410156 14.226562 -35.421875 13.53125 -34.390625 C 11.925781 -32.035156 11.203125 -30.066406 11.359375 -28.484375 C 11.523438 -26.898438 11.769531 -25.691406 12.09375 -24.859375 Z M 12.09375 -24.859375 "/></g></g></g><g fill="#1e1d23" fill-opacity="1"><g transform="translate(182.799433, 235.008821)"><g><path d="M -4.484375 -16.75 C -5.140625 -16.6875 -5.800781 -16.773438 -6.46875 -17.015625 C -7.132812 -17.253906 -7.78125 -17.691406 -8.40625 -18.328125 C -9.75 -19.722656 -10.550781 -21.726562 -10.8125 -24.34375 C -11.09375 -27.132812 -9.773438 -30.773438 -6.859375 -35.265625 C -4.023438 -39.609375 -0.613281 -43.453125 3.375 -46.796875 C 7.675781 -50.429688 11.476562 -52.410156 14.78125 -52.734375 C 17.695312 -53.023438 19.753906 -52.398438 20.953125 -50.859375 L 21.78125 -49.796875 C 22.414062 -48.984375 23.007812 -48.601562 23.5625 -48.65625 C 24.113281 -48.71875 24.96875 -48.859375 26.125 -49.078125 L 33.40625 -50.328125 C 34.53125 -50.546875 35.421875 -50.6875 36.078125 -50.75 C 36.734375 -50.820312 37.503906 -50.664062 38.390625 -50.28125 C 39.273438 -49.90625 40.078125 -49.375 40.796875 -48.6875 C 42.421875 -47.113281 43.335938 -45.296875 43.546875 -43.234375 C 43.765625 -41.097656 41.742188 -37.507812 37.484375 -32.46875 L 34.421875 -28.71875 C 32.234375 -25.957031 31.171875 -24.25 31.234375 -23.59375 C 31.296875 -22.945312 31.660156 -22.398438 32.328125 -21.953125 C 33.003906 -21.515625 33.703125 -21.332031 34.421875 -21.40625 C 35.140625 -21.476562 35.929688 -21.757812 36.796875 -22.25 C 37.671875 -22.75 38.738281 -23.445312 40 -24.34375 C 41.269531 -25.25 42.710938 -26.34375 44.328125 -27.625 C 48.722656 -31.1875 51.65625 -33.632812 53.125 -34.96875 L 57.09375 -38.4375 C 59.8125 -40.789062 61.789062 -42.03125 63.03125 -42.15625 C 64.269531 -42.28125 65.3125 -42.113281 66.15625 -41.65625 C 67 -41.207031 67.484375 -40.328125 67.609375 -39.015625 C 67.742188 -37.703125 67.25 -35.878906 66.125 -33.546875 C 65.007812 -31.222656 63.75 -29.171875 62.34375 -27.390625 C 60.9375 -25.617188 59.5625 -23.972656 58.21875 -22.453125 C 56.882812 -20.929688 55.289062 -19.269531 53.4375 -17.46875 C 51.582031 -15.664062 49.519531 -13.820312 47.25 -11.9375 C 44.976562 -10.0625 42.546875 -8.335938 39.953125 -6.765625 C 34.097656 -3.160156 28.59375 -1.097656 23.4375 -0.578125 C 15.90625 0.167969 11.117188 -1.3125 9.078125 -5.03125 C 8.453125 -6.144531 8.066406 -7.425781 7.921875 -8.875 C 7.773438 -10.320312 7.894531 -11.898438 8.28125 -13.609375 C 8.664062 -15.328125 9.21875 -17.0625 9.9375 -18.8125 C 11.394531 -22.257812 13.21875 -25.363281 15.40625 -28.125 C 17.25 -30.5 18.15625 -31.890625 18.125 -32.296875 C 18.050781 -32.953125 17.632812 -33.328125 16.875 -33.421875 C 16.125 -33.515625 15.03125 -33.488281 13.59375 -33.34375 C 12.96875 -33.28125 11.734375 -32.253906 9.890625 -30.265625 L 5.3125 -25.125 C 0.425781 -19.707031 -2.835938 -16.914062 -4.484375 -16.75 Z M -4.484375 -16.75 "/></g></g></g><g fill="#1e1d23" fill-opacity="1"><g transform="translate(244.162778, 228.860853)"><g><path d="M 60.390625 -32.265625 C 60.734375 -28.785156 62.429688 -27.195312 65.484375 -27.5 C 68.546875 -27.8125 73.546875 -31.285156 80.484375 -37.921875 L 84.65625 -42.078125 C 87.394531 -44.859375 90.125 -46.382812 92.84375 -46.65625 C 93.84375 -46.757812 94.519531 -46.5625 94.875 -46.0625 C 95.238281 -45.5625 95.460938 -44.90625 95.546875 -44.09375 C 95.628906 -43.28125 95.570312 -42.421875 95.375 -41.515625 C 95.175781 -40.609375 94.863281 -39.648438 94.4375 -38.640625 C 93.507812 -36.359375 92.570312 -34.5625 91.625 -33.25 C 90.6875 -31.945312 89.566406 -30.578125 88.265625 -29.140625 C 86.972656 -27.703125 85.425781 -26.082031 83.625 -24.28125 C 81.820312 -22.488281 79.816406 -20.640625 77.609375 -18.734375 C 75.398438 -16.828125 73.164062 -15.070312 70.90625 -13.46875 C 65.789062 -9.757812 61.476562 -7.734375 57.96875 -7.390625 C 53.769531 -6.960938 50.34375 -8.109375 47.6875 -10.828125 C 45.164062 -13.347656 43.539062 -16.898438 42.8125 -21.484375 C 37.257812 -14.503906 31.195312 -8.941406 24.625 -4.796875 C 20.601562 -2.285156 17.128906 -0.882812 14.203125 -0.59375 C 11.285156 -0.300781 8.691406 -0.394531 6.421875 -0.875 C 4.148438 -1.363281 2.117188 -2.226562 0.328125 -3.46875 C -3.546875 -6.101562 -5.75 -10.085938 -6.28125 -15.421875 C -7.039062 -23.046875 -5.039062 -30.679688 -0.28125 -38.328125 C 1.195312 -40.691406 2.925781 -42.804688 4.90625 -44.671875 C 9.226562 -48.023438 13.960938 -49.957031 19.109375 -50.46875 C 21.378906 -50.695312 23.066406 -50.15625 24.171875 -48.84375 C 24.617188 -48.332031 24.882812 -47.632812 24.96875 -46.75 C 25.050781 -45.875 24.898438 -44.832031 24.515625 -43.625 C 24.128906 -42.425781 23.640625 -41.164062 23.046875 -39.84375 C 22.453125 -38.519531 21.785156 -37.140625 21.046875 -35.703125 C 20.304688 -34.273438 19.632812 -32.894531 19.03125 -31.5625 C 17.613281 -28.351562 16.96875 -26.082031 17.09375 -24.75 C 17.226562 -23.425781 17.703125 -22.492188 18.515625 -21.953125 C 19.335938 -21.421875 20.300781 -21.207031 21.40625 -21.3125 C 23.84375 -21.5625 25.863281 -22.363281 27.46875 -23.71875 C 29.070312 -25.082031 30.640625 -26.617188 32.171875 -28.328125 L 36.53125 -33.546875 L 40.75 -38.875 C 43.738281 -42.613281 46.0625 -44.988281 47.71875 -46 C 49.375 -47.019531 50.601562 -47.46875 51.40625 -47.34375 C 52.21875 -47.21875 53.0625 -46.925781 53.9375 -46.46875 C 54.820312 -46.019531 55.703125 -45.460938 56.578125 -44.796875 C 58.609375 -43.179688 59.800781 -41.664062 60.15625 -40.25 C 60.320312 -39.332031 60.382812 -37.941406 60.34375 -36.078125 C 60.300781 -34.210938 60.316406 -32.941406 60.390625 -32.265625 Z M 60.390625 -32.265625 "/></g></g></g><g fill="#1e1d23" fill-opacity="1"><g transform="translate(331.876265, 220.072875)"><g><path d="M 46.671875 -2.1875 C 39.617188 -1.476562 32.21875 -5.28125 24.46875 -13.59375 L 18.953125 -8.578125 C 13.035156 -3.390625 9.03125 -0.691406 6.9375 -0.484375 C 4.5625 -0.253906 2.269531 -0.925781 0.0625 -2.5 C -0.570312 -2.957031 -1.054688 -3.46875 -1.390625 -4.03125 C -2.796875 -5.164062 -3.765625 -8.421875 -4.296875 -13.796875 C -4.835938 -19.179688 -4.742188 -24.289062 -4.015625 -29.125 C -3.285156 -33.957031 -2.160156 -38.484375 -0.640625 -42.703125 C 1.753906 -49.328125 5.753906 -56.742188 11.359375 -64.953125 C 14.421875 -70.460938 18.382812 -75.132812 23.25 -78.96875 C 27.363281 -82.1875 30.90625 -83.945312 33.875 -84.25 C 35.488281 -84.40625 36.890625 -84.175781 38.078125 -83.5625 C 39.265625 -82.957031 39.914062 -82.035156 40.03125 -80.796875 C 40.15625 -79.554688 39.8125 -78.148438 39 -76.578125 C 29.34375 -58.941406 23.773438 -48.660156 22.296875 -45.734375 C 20.816406 -42.816406 19.789062 -40.578125 19.21875 -39.015625 C 18.644531 -37.460938 18.222656 -36.28125 17.953125 -35.46875 C 17.691406 -34.664062 17.445312 -33.832031 17.21875 -32.96875 C 16.6875 -30.976562 16.460938 -29.550781 16.546875 -28.6875 C 16.640625 -27.832031 17.335938 -27.472656 18.640625 -27.609375 C 19.859375 -27.734375 22.695312 -31.15625 27.15625 -37.875 L 33.203125 -47.140625 C 35.429688 -50.585938 37.847656 -53.050781 40.453125 -54.53125 C 43.066406 -56.007812 45.390625 -56.847656 47.421875 -57.046875 C 53.160156 -57.628906 56.171875 -56.53125 56.453125 -53.75 C 56.703125 -51.238281 55.148438 -47.519531 51.796875 -42.59375 C 51.421875 -42.0625 50.863281 -41.347656 50.125 -40.453125 L 43.859375 -33.359375 L 39.65625 -28.8125 C 43.28125 -25.351562 46.734375 -23.007812 50.015625 -21.78125 C 50.773438 -21.507812 51.40625 -21.398438 51.90625 -21.453125 C 52.40625 -21.503906 53.273438 -21.910156 54.515625 -22.671875 C 55.753906 -23.441406 57.140625 -24.410156 58.671875 -25.578125 C 60.203125 -26.753906 61.816406 -28.078125 63.515625 -29.546875 L 76.609375 -41.28125 C 77.742188 -42.363281 78.929688 -42.96875 80.171875 -43.09375 C 82.753906 -43.351562 84.15625 -42.414062 84.375 -40.28125 C 84.65625 -37.488281 83.617188 -34.101562 81.265625 -30.125 C 80.554688 -28.945312 79.859375 -27.941406 79.171875 -27.109375 L 76.1875 -23.78125 C 67.820312 -14.289062 60.03125 -7.742188 52.8125 -4.140625 C 50.632812 -3.023438 48.585938 -2.375 46.671875 -2.1875 Z M 46.671875 -2.1875 "/></g></g></g><g fill="#1e1d23" fill-opacity="1"><g transform="translate(410.823561, 212.163178)"><g><path d="M 18.734375 -46.640625 C 18.734375 -46.640625 18.367188 -46.925781 17.640625 -47.5 C 17.222656 -47.875 16.992188 -48.253906 16.953125 -48.640625 C 16.878906 -49.367188 17.253906 -49.976562 18.078125 -50.46875 C 18.078125 -50.46875 18.894531 -50.960938 20.53125 -51.953125 C 24.394531 -54.253906 27.132812 -56.390625 28.75 -58.359375 C 25.613281 -58.390625 23.34375 -59.21875 21.9375 -60.84375 C 21.101562 -61.738281 20.617188 -62.863281 20.484375 -64.21875 C 20.347656 -65.582031 20.644531 -66.96875 21.375 -68.375 C 22.113281 -69.789062 23.132812 -71.082031 24.4375 -72.25 C 27.300781 -74.800781 30.757812 -76.28125 34.8125 -76.6875 C 39.59375 -77.164062 42.972656 -76.34375 44.953125 -74.21875 C 45.703125 -73.414062 46.160156 -72.15625 46.328125 -70.4375 C 46.503906 -68.71875 46.238281 -66.875 45.53125 -64.90625 C 44.832031 -62.945312 43.84375 -61.101562 42.5625 -59.375 C 41.289062 -57.644531 39.8125 -56.035156 38.125 -54.546875 C 36.4375 -53.066406 34.71875 -51.75 32.96875 -50.59375 C 25.914062 -45.9375 21.171875 -44.617188 18.734375 -46.640625 Z M 18.734375 -46.640625 "/></g></g></g><g fill="#1e1d23" fill-opacity="1"><g transform="translate(463.472279, 206.888325)"><g><path d="M 27.671875 -53.515625 C 28.066406 -52.859375 28.320312 -51.96875 28.4375 -50.84375 C 28.550781 -49.726562 28.117188 -48.410156 27.140625 -46.890625 C 28.109375 -46.054688 29.351562 -45.097656 30.875 -44.015625 C 32.394531 -42.929688 33.878906 -41.734375 35.328125 -40.421875 C 38.847656 -37.191406 40.769531 -33.960938 41.09375 -30.734375 C 41.300781 -28.609375 40.097656 -25.863281 37.484375 -22.5 C 36.691406 -21.457031 35.800781 -20.46875 34.8125 -19.53125 C 38.257812 -21.257812 42.285156 -24.421875 46.890625 -29.015625 L 52.4375 -34.59375 C 55.65625 -37.863281 57.832031 -39.78125 58.96875 -40.34375 C 60.101562 -40.90625 61.148438 -41.234375 62.109375 -41.328125 C 63.078125 -41.429688 64.039062 -41.285156 65 -40.890625 C 65.957031 -40.492188 66.488281 -39.753906 66.59375 -38.671875 C 66.707031 -37.585938 66.644531 -36.519531 66.40625 -35.46875 C 66.164062 -34.425781 65.847656 -33.453125 65.453125 -32.546875 C 64.878906 -31.242188 64.003906 -29.875 62.828125 -28.4375 C 59.566406 -24.664062 56.382812 -21.191406 53.28125 -18.015625 C 50.175781 -14.835938 46.921875 -12.050781 43.515625 -9.65625 C 36.316406 -4.632812 28.070312 -1.660156 18.78125 -0.734375 C 13.59375 -0.210938 8.957031 -1.082031 4.875 -3.34375 C 3.175781 -4.300781 1.847656 -5.328125 0.890625 -6.421875 C -0.0664062 -7.523438 -0.578125 -8.410156 -0.640625 -9.078125 C -0.703125 -9.753906 -0.550781 -10.484375 -0.1875 -11.265625 C 0.175781 -12.046875 0.695312 -12.867188 1.375 -13.734375 C 2.0625 -14.597656 2.851562 -15.476562 3.75 -16.375 C 4.65625 -17.269531 5.585938 -18.070312 6.546875 -18.78125 C 8.816406 -20.4375 10.546875 -21.320312 11.734375 -21.4375 C 12.921875 -21.5625 13.835938 -21.503906 14.484375 -21.265625 C 15.128906 -21.035156 15.726562 -20.773438 16.28125 -20.484375 C 17.789062 -19.660156 18.835938 -19.28125 19.421875 -19.34375 C 20.835938 -19.476562 21.445312 -20.515625 21.25 -22.453125 C 21.070312 -24.234375 19.910156 -26.28125 17.765625 -28.59375 C 16.910156 -29.5625 16.019531 -30.5 15.09375 -31.40625 C 14.164062 -32.320312 13.375 -33.234375 12.71875 -34.140625 C 11.75 -32.765625 10.503906 -31.320312 8.984375 -29.8125 L 4.421875 -25.078125 C 1.234375 -21.753906 -1.835938 -20.007812 -4.796875 -19.84375 C -6.523438 -19.800781 -7.578125 -21.625 -7.953125 -25.3125 C -8.015625 -25.957031 -8.023438 -26.597656 -7.984375 -27.234375 C -7.910156 -28.316406 -6.988281 -29.707031 -5.21875 -31.40625 C -3.445312 -33.113281 -2.148438 -34.296875 -1.328125 -34.953125 C -0.515625 -35.609375 0.179688 -36.1875 0.765625 -36.6875 L 5.859375 -40.953125 C 5.503906 -44.453125 7.207031 -47.867188 10.96875 -51.203125 C 14.539062 -54.347656 18.21875 -56.113281 22 -56.5 C 24.40625 -56.738281 26.296875 -55.742188 27.671875 -53.515625 Z M 27.671875 -53.515625 "/></g></g></g><g fill="#1e1d23" fill-opacity="1"><g transform="translate(93.158567, 458.063606)"><g><path d="M 25.171875 -11 C 23.367188 -13.46875 22.546875 -15.960938 22.703125 -18.484375 C 22.859375 -21.015625 23.726562 -24.390625 25.3125 -28.609375 C 26.894531 -32.828125 29.101562 -38.132812 31.9375 -44.53125 L 41.8125 -66.03125 L 54.046875 -91.625 L 67.96875 -119.28125 L 82.6875 -147.03125 C 61.46875 -139.4375 45.492188 -131.316406 34.765625 -122.671875 C 33.003906 -121.222656 31.519531 -119.75 30.3125 -118.25 L 26.140625 -113.1875 C 23.617188 -110.101562 21.003906 -108.425781 18.296875 -108.15625 C 15.585938 -107.882812 13.453125 -108.015625 11.890625 -108.546875 C 10.335938 -109.078125 9.0625 -109.835938 8.0625 -110.828125 C 5.53125 -113.222656 4.828125 -116.070312 5.953125 -119.375 C 8.585938 -132.226562 12.867188 -145.523438 18.796875 -159.265625 C 22.035156 -166.890625 24.78125 -171.351562 27.03125 -172.65625 C 43.457031 -181.78125 78.6875 -190.738281 132.71875 -199.53125 C 150.3125 -202.394531 168.863281 -204.800781 188.375 -206.75 C 201.101562 -208.03125 213.664062 -204.6875 226.0625 -196.71875 C 239.925781 -187.613281 247.640625 -175.242188 249.203125 -159.609375 C 251.253906 -139.191406 235.671875 -118.109375 202.453125 -96.359375 C 184.046875 -84.210938 166.507812 -75.25 149.84375 -69.46875 C 145.519531 -68.03125 142.160156 -67.191406 139.765625 -66.953125 C 137.378906 -66.710938 134.640625 -66.757812 131.546875 -67.09375 C 128.460938 -67.425781 125.640625 -68.054688 123.078125 -68.984375 C 117.003906 -71.304688 113.757812 -74.5 113.34375 -78.5625 C 112.769531 -84.332031 117.742188 -90.753906 128.265625 -97.828125 L 155.828125 -116.453125 C 172.140625 -127.398438 182.125 -135.15625 185.78125 -139.71875 C 189.4375 -144.28125 191.128906 -147.890625 190.859375 -150.546875 C 190.597656 -153.210938 189.832031 -155.625 188.5625 -157.78125 C 187.300781 -159.9375 185.671875 -161.828125 183.671875 -163.453125 C 179.398438 -166.953125 175.050781 -168.476562 170.625 -168.03125 C 161.414062 -167.101562 150.382812 -165.269531 137.53125 -162.53125 L 123.890625 -131.734375 C 106.617188 -91.234375 95.71875 -55.289062 91.1875 -23.90625 C 89.320312 -11.6875 78.316406 -4.566406 58.171875 -2.546875 C 41.546875 -0.878906 30.546875 -3.695312 25.171875 -11 Z M 25.171875 -11 "/></g></g><g transform="translate(346.515911, 432.679839)"><g><path d="M 150.5625 -111.6875 C 156.34375 -112.257812 159.472656 -110.15625 159.953125 -105.375 C 160.535156 -99.5 157.707031 -92.148438 151.46875 -83.328125 C 141.1875 -68.617188 128.78125 -54.054688 114.25 -39.640625 C 90.582031 -16.460938 68.632812 -3.859375 48.40625 -1.828125 C 33.863281 -0.378906 21.304688 -5.507812 10.734375 -17.21875 C -0.242188 -29.445312 -6.847656 -46.664062 -9.078125 -68.875 C -12.003906 -98.050781 -1.007812 -131.722656 23.90625 -169.890625 C 39.695312 -194.179688 55.191406 -211.148438 70.390625 -220.796875 C 75.097656 -223.828125 78.785156 -225.472656 81.453125 -225.734375 C 84.117188 -226.003906 86.597656 -225.820312 88.890625 -225.1875 C 91.191406 -224.550781 93.367188 -223.554688 95.421875 -222.203125 C 100.210938 -218.953125 102.867188 -214.707031 103.390625 -209.46875 C 103.910156 -204.226562 103.085938 -197.867188 100.921875 -190.390625 C 98.765625 -182.921875 95.335938 -174.847656 90.640625 -166.171875 C 80.722656 -147.753906 66.617188 -129.648438 48.328125 -111.859375 C 44.160156 -101.492188 42.769531 -89.394531 44.15625 -75.5625 C 44.78125 -69.332031 47.351562 -63.671875 51.875 -58.578125 C 56.5 -53.472656 61.242188 -51.164062 66.109375 -51.65625 C 72.796875 -52.320312 84.882812 -60.503906 102.375 -76.203125 L 124.625 -97.1875 C 133.695312 -106.03125 142.34375 -110.863281 150.5625 -111.6875 Z M 150.5625 -111.6875 "/></g></g><g transform="translate(484.846312, 418.820573)"><g><path d="M 225.140625 -125.3125 C 228.035156 -125.601562 229.726562 -123.316406 230.21875 -118.453125 C 231.050781 -110.046875 226.269531 -98.570312 215.875 -84.03125 L 208.921875 -75.390625 C 187.867188 -49.648438 167.394531 -31.863281 147.5 -22.03125 C 135.15625 -15.957031 125.921875 -15.253906 119.796875 -19.921875 C 114.742188 -23.890625 110.367188 -30.664062 106.671875 -40.25 L 102.25 -51.703125 L 75.171875 -31.078125 L 59.4375 -19.921875 C 40.664062 -7.085938 26.3125 -0.167969 16.375 0.828125 C 3.632812 2.097656 -7.472656 -1.757812 -16.953125 -10.75 C -26.015625 -19.25 -31.160156 -29.640625 -32.390625 -41.921875 C -33.597656 -54.015625 -29.847656 -65.285156 -21.140625 -75.734375 C -8.671875 -90.679688 11.894531 -105.289062 40.5625 -119.5625 C 67.6875 -132.945312 89.914062 -140.503906 107.25 -142.234375 C 113.132812 -142.828125 116.367188 -140.238281 116.953125 -134.46875 C 117.347656 -130.488281 116.875 -127.425781 115.53125 -125.28125 C 114.1875 -123.144531 111.226562 -120.796875 106.65625 -118.234375 L 90.328125 -109.21875 C 66.097656 -96.113281 48.679688 -83.285156 38.078125 -70.734375 C 35.046875 -67.222656 33.675781 -63.976562 33.96875 -61 C 34.269531 -58.019531 36.816406 -56.773438 41.609375 -57.265625 C 46.304688 -57.734375 56.726562 -63.882812 72.875 -75.71875 L 83.453125 -83.484375 C 99.828125 -95.710938 113.890625 -102.410156 125.640625 -103.578125 C 135.578125 -104.578125 142.609375 -100.859375 146.734375 -92.421875 C 147.785156 -90.148438 148.789062 -87.851562 149.75 -85.53125 C 150.707031 -83.21875 151.644531 -81.148438 152.5625 -79.328125 C 154.632812 -75.066406 156.328125 -73 157.640625 -73.125 C 158.953125 -73.257812 160.757812 -74.101562 163.0625 -75.65625 C 165.375 -77.21875 167.894531 -79.160156 170.625 -81.484375 C 173.363281 -83.804688 176.1875 -86.34375 179.09375 -89.09375 L 194.171875 -103.890625 C 207.503906 -117.441406 217.828125 -124.582031 225.140625 -125.3125 Z M 225.140625 -125.3125 "/></g></g><g transform="translate(692.138683, 398.052036)"><g><path d="M 42.46875 -62.421875 C 42.882812 -58.265625 45.847656 -56.460938 51.359375 -57.015625 C 62.546875 -58.140625 80.203125 -74 104.328125 -104.59375 L 116.140625 -119.1875 C 124.203125 -128.851562 129.675781 -133.832031 132.5625 -134.125 C 135.457031 -134.414062 138.082031 -134.175781 140.4375 -133.40625 C 142.800781 -132.632812 144.914062 -131.566406 146.78125 -130.203125 C 150.625 -127.390625 152.722656 -124.195312 153.078125 -120.625 C 153.441406 -117.050781 153.453125 -113.082031 153.109375 -108.71875 C 152.765625 -104.363281 152.050781 -99.4375 150.96875 -93.9375 C 148.976562 -83.707031 144.9375 -69.851562 138.84375 -52.375 L 134.484375 -39.890625 L 155.4375 -63.0625 L 198.53125 -108.15625 C 202.957031 -112.238281 206.753906 -114.441406 209.921875 -114.765625 C 216.773438 -115.453125 220.53125 -112.5 221.1875 -105.90625 C 221.863281 -99.144531 218.316406 -89.984375 210.546875 -78.421875 C 208.171875 -74.804688 205.546875 -71.398438 202.671875 -68.203125 L 173.484375 -37.234375 L 116.4375 21.71875 C 111.40625 27.0625 107.632812 31.273438 105.125 34.359375 C 102.3125 40.109375 100.113281 44.40625 98.53125 47.25 C 96.945312 50.101562 95.398438 53.132812 93.890625 56.34375 C 92.390625 59.550781 90.894531 62.328125 89.40625 64.671875 C 86.164062 69.722656 82.691406 72.4375 78.984375 72.8125 C 75.109375 73.195312 71.207031 71.992188 67.28125 69.203125 C 60.007812 64.003906 56.140625 59.097656 55.671875 54.484375 C 55.210938 49.878906 55.941406 44.40625 57.859375 38.0625 C 59.785156 31.71875 62.382812 24.410156 65.65625 16.140625 L 89.078125 -39.71875 C 76.492188 -25.863281 66.476562 -16.535156 59.03125 -11.734375 C 51.582031 -6.929688 45.234375 -3.601562 39.984375 -1.75 C 34.742188 0.101562 29.117188 1.328125 23.109375 1.921875 C 17.109375 2.523438 11.722656 1.808594 6.953125 -0.21875 C 2.191406 -2.25 -1.890625 -5.191406 -5.296875 -9.046875 C -11.898438 -16.691406 -15.863281 -27.109375 -17.1875 -40.296875 C -18.582031 -54.296875 -16.441406 -68.460938 -10.765625 -82.796875 C -5.316406 -96.859375 2.550781 -108.503906 12.84375 -117.734375 C 23.707031 -127.578125 35.328125 -133.117188 47.703125 -134.359375 C 60.078125 -135.597656 66.75 -131.382812 67.71875 -121.71875 C 68.332031 -115.664062 64.082031 -106.1875 54.96875 -93.28125 C 45.863281 -80.375 41.695312 -70.085938 42.46875 -62.421875 Z M 42.46875 -62.421875 "/></g></g><g transform="translate(899.431054, 377.283499)"><g><path d="M 150.5625 -111.6875 C 156.34375 -112.257812 159.472656 -110.15625 159.953125 -105.375 C 160.535156 -99.5 157.707031 -92.148438 151.46875 -83.328125 C 141.1875 -68.617188 128.78125 -54.054688 114.25 -39.640625 C 90.582031 -16.460938 68.632812 -3.859375 48.40625 -1.828125 C 33.863281 -0.378906 21.304688 -5.507812 10.734375 -17.21875 C -0.242188 -29.445312 -6.847656 -46.664062 -9.078125 -68.875 C -12.003906 -98.050781 -1.007812 -131.722656 23.90625 -169.890625 C 39.695312 -194.179688 55.191406 -211.148438 70.390625 -220.796875 C 75.097656 -223.828125 78.785156 -225.472656 81.453125 -225.734375 C 84.117188 -226.003906 86.597656 -225.820312 88.890625 -225.1875 C 91.191406 -224.550781 93.367188 -223.554688 95.421875 -222.203125 C 100.210938 -218.953125 102.867188 -214.707031 103.390625 -209.46875 C 103.910156 -204.226562 103.085938 -197.867188 100.921875 -190.390625 C 98.765625 -182.921875 95.335938 -174.847656 90.640625 -166.171875 C 80.722656 -147.753906 66.617188 -129.648438 48.328125 -111.859375 C 44.160156 -101.492188 42.769531 -89.394531 44.15625 -75.5625 C 44.78125 -69.332031 47.351562 -63.671875 51.875 -58.578125 C 56.5 -53.472656 61.242188 -51.164062 66.109375 -51.65625 C 72.796875 -52.320312 84.882812 -60.503906 102.375 -76.203125 L 124.625 -97.1875 C 133.695312 -106.03125 142.34375 -110.863281 150.5625 -111.6875 Z M 150.5625 -111.6875 "/></g></g></g><g fill="#1e1d23" fill-opacity="1"><g transform="translate(1037.761464, 363.424232)"><g><path d="M 102.03125 -168.484375 C 99.632812 -166.015625 96.96875 -163.925781 94.03125 -162.21875 C 91.101562 -160.507812 87.742188 -159.460938 83.953125 -159.078125 C 80.160156 -158.703125 76.4375 -158.96875 72.78125 -159.875 C 69.132812 -160.789062 65.894531 -162.242188 63.0625 -164.234375 C 56.875 -168.535156 53.398438 -174.484375 52.640625 -182.078125 C 51.472656 -193.722656 60.359375 -203.367188 79.296875 -211.015625 C 85.691406 -213.671875 91.015625 -215.210938 95.265625 -215.640625 C 99.515625 -216.066406 102.742188 -215.910156 104.953125 -215.171875 C 107.171875 -214.429688 109.035156 -213.363281 110.546875 -211.96875 C 113.554688 -209.164062 115.222656 -206.160156 115.546875 -202.953125 C 115.867188 -199.753906 115.773438 -196.800781 115.265625 -194.09375 C 114.765625 -191.394531 113.929688 -188.570312 112.765625 -185.625 C 111.597656 -182.6875 110.113281 -179.710938 108.3125 -176.703125 C 106.519531 -173.703125 104.425781 -170.960938 102.03125 -168.484375 Z M 82.828125 -15.890625 C 76.316406 -11.628906 69.921875 -8.113281 63.640625 -5.34375 C 57.359375 -2.570312 51.078125 -0.867188 44.796875 -0.234375 C 38.515625 0.386719 31.859375 -0.472656 24.828125 -2.828125 C 17.796875 -5.179688 11.40625 -8.625 5.65625 -13.15625 C -7.132812 -23.28125 -14.21875 -35.25 -15.59375 -49.0625 C -16.875 -61.800781 -14.375 -75.097656 -8.09375 -88.953125 C -2.332031 -101.484375 5.519531 -112.304688 15.46875 -121.421875 C 25.414062 -130.535156 35 -135.550781 44.21875 -136.46875 C 57.394531 -137.789062 64.8125 -134.800781 66.46875 -127.5 C 66.96875 -125.269531 67.363281 -122.664062 67.65625 -119.6875 C 67.957031 -116.707031 67.597656 -113.222656 66.578125 -109.234375 C 65.566406 -105.253906 64.144531 -101.234375 62.3125 -97.171875 C 60.488281 -93.109375 58.425781 -89.113281 56.125 -85.1875 C 53.820312 -81.257812 51.601562 -77.6875 49.46875 -74.46875 C 45.332031 -68.3125 42 -63.828125 39.46875 -61.015625 C 39.769531 -57.941406 42.382812 -55.015625 47.3125 -52.234375 C 51.957031 -49.585938 55.789062 -48.414062 58.8125 -48.71875 C 61.832031 -49.019531 65.320312 -50.097656 69.28125 -51.953125 C 73.25 -53.804688 77.300781 -56.175781 81.4375 -59.0625 C 85.582031 -61.945312 89.78125 -65.195312 94.03125 -68.8125 C 98.28125 -72.4375 102.445312 -76.132812 106.53125 -79.90625 L 129.390625 -101.78125 C 138.523438 -109.894531 146.160156 -114.257812 152.296875 -114.875 C 154.734375 -115.113281 156.691406 -114.414062 158.171875 -112.78125 C 159.660156 -111.15625 160.523438 -109.164062 160.765625 -106.8125 C 161.003906 -104.46875 160.15625 -101.125 158.21875 -96.78125 C 156.28125 -92.4375 153.503906 -87.570312 149.890625 -82.1875 C 146.273438 -76.8125 141.984375 -71.140625 137.015625 -65.171875 C 132.046875 -59.203125 126.613281 -53.273438 120.71875 -47.390625 C 114.832031 -41.515625 108.671875 -35.859375 102.234375 -30.421875 C 95.804688 -24.992188 89.335938 -20.148438 82.828125 -15.890625 Z M 82.828125 -15.890625 "/></g></g></g><g fill="#1e1d23" fill-opacity="1"><g transform="translate(1176.091797, 349.564973)"><g><path d="M 72.671875 -140.578125 C 73.753906 -138.847656 74.441406 -136.515625 74.734375 -133.578125 C 75.035156 -130.640625 73.875 -127.175781 71.25 -123.1875 C 73.851562 -120.96875 77.144531 -118.441406 81.125 -115.609375 C 85.101562 -112.773438 89 -109.632812 92.8125 -106.1875 C 102.050781 -97.71875 107.097656 -89.238281 107.953125 -80.75 C 108.515625 -75.144531 105.359375 -67.9375 98.484375 -59.125 C 96.390625 -56.363281 94.046875 -53.757812 91.453125 -51.3125 C 100.503906 -55.875 111.078125 -64.1875 123.171875 -76.25 L 137.734375 -90.84375 C 146.171875 -99.445312 151.890625 -104.488281 154.890625 -105.96875 C 157.898438 -107.457031 160.664062 -108.328125 163.1875 -108.578125 C 165.71875 -108.828125 168.242188 -108.4375 170.765625 -107.40625 C 173.285156 -106.382812 174.6875 -104.453125 174.96875 -101.609375 C 175.257812 -98.765625 175.082031 -95.960938 174.4375 -93.203125 C 173.800781 -90.453125 172.96875 -87.882812 171.9375 -85.5 C 170.457031 -82.070312 168.171875 -78.472656 165.078125 -74.703125 C 156.492188 -64.804688 148.125 -55.6875 139.96875 -47.34375 C 131.8125 -39 123.257812 -31.691406 114.3125 -25.421875 C 95.382812 -12.203125 73.726562 -4.375 49.34375 -1.9375 C 35.707031 -0.5625 23.523438 -2.851562 12.796875 -8.8125 C 8.359375 -11.28125 4.878906 -13.957031 2.359375 -16.84375 C -0.160156 -19.738281 -1.507812 -22.066406 -1.6875 -23.828125 C -1.863281 -25.597656 -1.460938 -27.515625 -0.484375 -29.578125 C 0.480469 -31.640625 1.859375 -33.804688 3.640625 -36.078125 C 5.421875 -38.359375 7.488281 -40.664062 9.84375 -43 C 12.207031 -45.34375 14.671875 -47.460938 17.234375 -49.359375 C 23.179688 -53.691406 27.710938 -56.007812 30.828125 -56.3125 C 33.941406 -56.625 36.347656 -56.476562 38.046875 -55.875 C 39.753906 -55.28125 41.328125 -54.597656 42.765625 -53.828125 C 46.734375 -51.660156 49.484375 -50.65625 51.015625 -50.8125 C 54.710938 -51.1875 56.304688 -53.90625 55.796875 -58.96875 C 55.328125 -63.664062 52.285156 -69.0625 46.671875 -75.15625 C 44.410156 -77.65625 42.0625 -80.109375 39.625 -82.515625 C 37.195312 -84.921875 35.132812 -87.316406 33.4375 -89.703125 C 30.882812 -86.066406 27.613281 -82.269531 23.625 -78.3125 L 11.59375 -65.890625 C 3.269531 -57.117188 -4.800781 -52.523438 -12.625 -52.109375 C -17.15625 -52.015625 -19.90625 -56.800781 -20.875 -66.46875 C -21.050781 -68.175781 -21.085938 -69.859375 -20.984375 -71.515625 C -20.816406 -74.359375 -18.40625 -78.019531 -13.75 -82.5 C -9.09375 -86.976562 -5.679688 -90.078125 -3.515625 -91.796875 C -1.359375 -93.523438 0.46875 -95.054688 1.96875 -96.390625 L 15.359375 -107.59375 C 14.429688 -116.800781 18.914062 -125.773438 28.8125 -134.515625 C 38.207031 -142.765625 47.867188 -147.382812 57.796875 -148.375 C 64.117188 -149.007812 69.078125 -146.410156 72.671875 -140.578125 Z M 72.671875 -140.578125 "/></g></g></g><g clip-path="url(#e6385bc06e)"><g fill="#1e1d23" fill-opacity="1"><g transform="translate(1337.319269, 333.411659)"><g><path d="M 140.40625 -107.796875 C 149.257812 -108.679688 153.992188 -106.054688 154.609375 -99.921875 C 155.203125 -94.046875 151.8125 -86.039062 144.4375 -75.90625 L 138.484375 -68.34375 C 131.265625 -59.3125 122.703125 -50.285156 112.796875 -41.265625 C 102.890625 -32.242188 94.101562 -25.023438 86.4375 -19.609375 C 68.601562 -7.242188 52.007812 -0.289062 36.65625 1.25 C 22.195312 2.695312 9.976562 -0.453125 0 -8.203125 C -8.601562 -14.921875 -13.320312 -22.4375 -14.15625 -30.75 C -14.988281 -39.0625 -15.003906 -47.40625 -14.203125 -55.78125 C -13.398438 -64.164062 -12.082031 -72.414062 -10.25 -80.53125 C -6.613281 -97.03125 -2.242188 -111.195312 2.859375 -123.03125 C 4.171875 -126.269531 4.785156 -128.335938 4.703125 -129.234375 L -12.765625 -127.484375 C -19.359375 -126.828125 -24.613281 -127.851562 -28.53125 -130.5625 C -32.457031 -133.269531 -34.613281 -136.5625 -35 -140.4375 C -35.382812 -144.320312 -34.945312 -147.242188 -33.6875 -149.203125 C -32.425781 -151.160156 -30.753906 -152.648438 -28.671875 -153.671875 C -25.722656 -155.242188 -21.269531 -156.332031 -15.3125 -156.9375 L 17.890625 -160.125 C 18.585938 -160.46875 19.84375 -162.550781 21.65625 -166.375 L 28.484375 -181.421875 C 31.367188 -188.097656 34.445312 -193.101562 37.71875 -196.4375 C 40.988281 -199.78125 45.035156 -201.691406 49.859375 -202.171875 C 54.691406 -202.660156 58.800781 -202.617188 62.1875 -202.046875 C 65.582031 -201.472656 68.476562 -200.625 70.875 -199.5 C 75.582031 -197.050781 78.109375 -194.109375 78.453125 -190.671875 C 78.597656 -189.234375 78.296875 -187.25 77.546875 -184.71875 L 71.8125 -165.53125 L 136.15625 -172.109375 C 141.757812 -172.671875 144.851562 -170.0625 145.4375 -164.28125 C 146.8125 -150.550781 135.253906 -142.457031 110.765625 -140 L 61.203125 -134.890625 C 60.171875 -134.242188 58.582031 -131.445312 56.4375 -126.5 L 51.46875 -114.625 C 50.207031 -111.675781 49.332031 -109.445312 48.84375 -107.9375 L 46.53125 -101 C 41.851562 -86.75 39.816406 -76.597656 40.421875 -70.546875 C 41.023438 -64.492188 43.132812 -59.597656 46.75 -55.859375 C 50.363281 -52.117188 54.832031 -50.515625 60.15625 -51.046875 C 65.488281 -51.585938 70.601562 -53.148438 75.5 -55.734375 C 80.394531 -58.328125 85.128906 -61.351562 89.703125 -64.8125 C 98.003906 -71.21875 104.445312 -77.019531 109.03125 -82.21875 C 113.613281 -87.414062 117.460938 -91.40625 120.578125 -94.1875 C 120.578125 -94.1875 123.515625 -96.71875 129.390625 -101.78125 C 133.929688 -105.507812 137.601562 -107.515625 140.40625 -107.796875 Z M 140.40625 -107.796875 "/></g></g></g></g><g fill="#ffffff" fill-opacity="1"><g transform="translate(9.102996, 245.904944)"><g><path d="M 12.46875 -2.953125 C 11.039062 -4.066406 9.921875 -5.375 9.109375 -6.875 C 8.296875 -8.375 7.832031 -9.695312 7.71875 -10.84375 C 7.601562 -12 7.773438 -13.398438 8.234375 -15.046875 C 8.703125 -16.691406 9.363281 -18.609375 10.21875 -20.796875 C 11.070312 -22.984375 12.078125 -25.375 13.234375 -27.96875 C 14.398438 -30.5625 15.664062 -33.195312 17.03125 -35.875 L 21.140625 -43.84375 C 22.578125 -46.457031 23.992188 -48.894531 25.390625 -51.15625 C 18.753906 -48.269531 13.878906 -45.617188 10.765625 -43.203125 C 7.648438 -40.785156 5.242188 -39.003906 3.546875 -37.859375 C 1.859375 -36.722656 0.425781 -36.097656 -0.75 -35.984375 C -2.664062 -35.796875 -3.742188 -36.898438 -3.984375 -39.296875 C -4.328125 -42.742188 -2.960938 -47.148438 0.109375 -52.515625 C 3.304688 -58.085938 6.828125 -61.691406 10.671875 -63.328125 C 14.515625 -64.960938 18.828125 -66.582031 23.609375 -68.1875 C 28.398438 -69.789062 33.398438 -71.269531 38.609375 -72.625 C 49.921875 -75.5625 60.507812 -77.523438 70.375 -78.515625 C 81.65625 -79.640625 88.96875 -79.296875 92.3125 -77.484375 C 95.28125 -75.867188 97.429688 -73.453125 98.765625 -70.234375 C 99.410156 -68.660156 99.820312 -66.941406 100 -65.078125 C 100.1875 -63.210938 99.476562 -61.1875 97.875 -59 C 96.28125 -56.8125 94.070312 -54.675781 91.25 -52.59375 C 85.957031 -48.59375 78.878906 -44.757812 70.015625 -41.09375 C 75.304688 -40.613281 79.019531 -39.828125 81.15625 -38.734375 C 83.300781 -37.648438 84.847656 -36.503906 85.796875 -35.296875 C 86.753906 -34.085938 87.332031 -32.492188 87.53125 -30.515625 C 87.726562 -28.535156 87.070312 -26.410156 85.5625 -24.140625 C 84.050781 -21.878906 81.863281 -19.679688 79 -17.546875 C 76.144531 -15.421875 72.722656 -13.410156 68.734375 -11.515625 C 64.742188 -9.628906 60.375 -7.925781 55.625 -6.40625 C 45.726562 -3.195312 35.316406 -1.046875 24.390625 0.046875 C 19.648438 0.523438 15.675781 -0.472656 12.46875 -2.953125 Z M 37.328125 -44.578125 C 33.054688 -35.117188 31.09375 -28.675781 31.4375 -25.25 C 31.59375 -23.664062 32.5625 -22.257812 34.34375 -21.03125 C 36.03125 -19.882812 37.71875 -19.394531 39.40625 -19.5625 C 41.09375 -19.738281 42.941406 -20.003906 44.953125 -20.359375 C 46.960938 -20.722656 49.019531 -21.148438 51.125 -21.640625 C 53.226562 -22.128906 55.289062 -22.660156 57.3125 -23.234375 C 59.332031 -23.816406 61.128906 -24.4375 62.703125 -25.09375 C 66.171875 -26.507812 67.851562 -27.769531 67.75 -28.875 C 67.550781 -30.863281 64.613281 -32.234375 58.9375 -32.984375 C 54.332031 -33.578125 49.984375 -33.671875 45.890625 -33.265625 C 44.304688 -33.097656 43.140625 -33.296875 42.390625 -33.859375 C 41.648438 -34.421875 41.238281 -35.125 41.15625 -35.96875 C 41.070312 -36.8125 41.398438 -37.734375 42.140625 -38.734375 C 42.890625 -39.734375 43.960938 -40.59375 45.359375 -41.3125 C 56.742188 -45.414062 66.175781 -49.679688 73.65625 -54.109375 C 77.320312 -56.273438 79.109375 -57.828125 79.015625 -58.765625 C 78.878906 -60.097656 78.375 -61.140625 77.5 -61.890625 C 75.945312 -63.222656 74.3125 -63.800781 72.59375 -63.625 C 70.875 -63.457031 68.921875 -63.195312 66.734375 -62.84375 C 64.554688 -62.488281 62.207031 -62.039062 59.6875 -61.5 C 54.132812 -60.394531 48.660156 -59.050781 43.265625 -57.46875 C 42.628906 -55.78125 41.757812 -53.851562 40.65625 -51.6875 Z M 37.328125 -44.578125 "/></g></g></g><g fill="#ffffff" fill-opacity="1"><g transform="translate(114.348867, 235.360404)"><g><path d="M 67.53125 -45.046875 C 69.175781 -45.210938 70.09375 -44.367188 70.28125 -42.515625 C 70.40625 -41.273438 70.140625 -39.675781 69.484375 -37.71875 C 68.835938 -35.757812 67.800781 -33.882812 66.375 -32.09375 C 64.957031 -30.3125 63.316406 -28.4375 61.453125 -26.46875 C 59.585938 -24.507812 57.378906 -22.429688 54.828125 -20.234375 C 52.285156 -18.035156 49.457031 -15.820312 46.34375 -13.59375 C 43.226562 -11.375 39.894531 -9.320312 36.34375 -7.4375 C 28.457031 -3.238281 20.664062 -0.753906 12.96875 0.015625 C 7.09375 0.597656 1.800781 -0.414062 -2.90625 -3.03125 C -7.832031 -5.769531 -10.523438 -9.425781 -10.984375 -14 C -11.703125 -21.1875 -8.519531 -28.40625 -1.4375 -35.65625 C 4.675781 -41.882812 12.101562 -46.984375 20.84375 -50.953125 C 26.15625 -53.367188 30.71875 -54.765625 34.53125 -55.140625 C 37.632812 -55.453125 40.320312 -54.957031 42.59375 -53.65625 C 45.03125 -52.226562 46.390625 -50.117188 46.671875 -47.328125 C 47.109375 -42.972656 44.132812 -37.800781 37.75 -31.8125 C 36.738281 -30.84375 35.816406 -30.019531 34.984375 -29.34375 L 33.265625 -27.921875 C 30.054688 -25.171875 25.097656 -21.945312 18.390625 -18.25 C 20.671875 -17.332031 22.75 -16.96875 24.625 -17.15625 C 26.5 -17.34375 28.15625 -17.734375 29.59375 -18.328125 C 31.039062 -18.929688 32.664062 -19.738281 34.46875 -20.75 C 36.28125 -21.757812 38.203125 -22.945312 40.234375 -24.3125 C 42.273438 -25.6875 44.328125 -27.171875 46.390625 -28.765625 C 51.003906 -32.316406 54.957031 -35.875 58.25 -39.4375 C 59.957031 -41.375 62.222656 -43.003906 65.046875 -44.328125 C 65.972656 -44.734375 66.800781 -44.972656 67.53125 -45.046875 Z M 12.09375 -24.859375 L 14.78125 -26.59375 C 15.664062 -27.164062 16.453125 -27.695312 17.140625 -28.1875 C 23.679688 -32.863281 27.382812 -35.710938 28.25 -36.734375 C 29.113281 -37.765625 29.523438 -38.457031 29.484375 -38.8125 C 29.453125 -39.175781 29.3125 -39.585938 29.0625 -40.046875 C 28.820312 -40.515625 28.503906 -40.921875 28.109375 -41.265625 C 27.191406 -42.140625 26.269531 -42.53125 25.34375 -42.4375 C 24.414062 -42.34375 23.40625 -42.066406 22.3125 -41.609375 C 21.226562 -41.160156 20.148438 -40.578125 19.078125 -39.859375 C 18.003906 -39.148438 16.984375 -38.316406 16.015625 -37.359375 C 15.054688 -36.410156 14.226562 -35.421875 13.53125 -34.390625 C 11.925781 -32.035156 11.203125 -30.066406 11.359375 -28.484375 C 11.523438 -26.898438 11.769531 -25.691406 12.09375 -24.859375 Z M 12.09375 -24.859375 "/></g></g></g><g fill="#ffffff" fill-opacity="1"><g transform="translate(175.712212, 229.212435)"><g><path d="M -4.484375 -16.75 C -5.140625 -16.6875 -5.800781 -16.773438 -6.46875 -17.015625 C -7.132812 -17.253906 -7.78125 -17.691406 -8.40625 -18.328125 C -9.75 -19.722656 -10.550781 -21.726562 -10.8125 -24.34375 C -11.09375 -27.132812 -9.773438 -30.773438 -6.859375 -35.265625 C -4.023438 -39.609375 -0.613281 -43.453125 3.375 -46.796875 C 7.675781 -50.429688 11.476562 -52.410156 14.78125 -52.734375 C 17.695312 -53.023438 19.753906 -52.398438 20.953125 -50.859375 L 21.78125 -49.796875 C 22.414062 -48.984375 23.007812 -48.601562 23.5625 -48.65625 C 24.113281 -48.71875 24.96875 -48.859375 26.125 -49.078125 L 33.40625 -50.328125 C 34.53125 -50.546875 35.421875 -50.6875 36.078125 -50.75 C 36.734375 -50.820312 37.503906 -50.664062 38.390625 -50.28125 C 39.273438 -49.90625 40.078125 -49.375 40.796875 -48.6875 C 42.421875 -47.113281 43.335938 -45.296875 43.546875 -43.234375 C 43.765625 -41.097656 41.742188 -37.507812 37.484375 -32.46875 L 34.421875 -28.71875 C 32.234375 -25.957031 31.171875 -24.25 31.234375 -23.59375 C 31.296875 -22.945312 31.660156 -22.398438 32.328125 -21.953125 C 33.003906 -21.515625 33.703125 -21.332031 34.421875 -21.40625 C 35.140625 -21.476562 35.929688 -21.757812 36.796875 -22.25 C 37.671875 -22.75 38.738281 -23.445312 40 -24.34375 C 41.269531 -25.25 42.710938 -26.34375 44.328125 -27.625 C 48.722656 -31.1875 51.65625 -33.632812 53.125 -34.96875 L 57.09375 -38.4375 C 59.8125 -40.789062 61.789062 -42.03125 63.03125 -42.15625 C 64.269531 -42.28125 65.3125 -42.113281 66.15625 -41.65625 C 67 -41.207031 67.484375 -40.328125 67.609375 -39.015625 C 67.742188 -37.703125 67.25 -35.878906 66.125 -33.546875 C 65.007812 -31.222656 63.75 -29.171875 62.34375 -27.390625 C 60.9375 -25.617188 59.5625 -23.972656 58.21875 -22.453125 C 56.882812 -20.929688 55.289062 -19.269531 53.4375 -17.46875 C 51.582031 -15.664062 49.519531 -13.820312 47.25 -11.9375 C 44.976562 -10.0625 42.546875 -8.335938 39.953125 -6.765625 C 34.097656 -3.160156 28.59375 -1.097656 23.4375 -0.578125 C 15.90625 0.167969 11.117188 -1.3125 9.078125 -5.03125 C 8.453125 -6.144531 8.066406 -7.425781 7.921875 -8.875 C 7.773438 -10.320312 7.894531 -11.898438 8.28125 -13.609375 C 8.664062 -15.328125 9.21875 -17.0625 9.9375 -18.8125 C 11.394531 -22.257812 13.21875 -25.363281 15.40625 -28.125 C 17.25 -30.5 18.15625 -31.890625 18.125 -32.296875 C 18.050781 -32.953125 17.632812 -33.328125 16.875 -33.421875 C 16.125 -33.515625 15.03125 -33.488281 13.59375 -33.34375 C 12.96875 -33.28125 11.734375 -32.253906 9.890625 -30.265625 L 5.3125 -25.125 C 0.425781 -19.707031 -2.835938 -16.914062 -4.484375 -16.75 Z M -4.484375 -16.75 "/></g></g></g><g fill="#ffffff" fill-opacity="1"><g transform="translate(237.075557, 223.064467)"><g><path d="M 60.390625 -32.265625 C 60.734375 -28.785156 62.429688 -27.195312 65.484375 -27.5 C 68.546875 -27.8125 73.546875 -31.285156 80.484375 -37.921875 L 84.65625 -42.078125 C 87.394531 -44.859375 90.125 -46.382812 92.84375 -46.65625 C 93.84375 -46.757812 94.519531 -46.5625 94.875 -46.0625 C 95.238281 -45.5625 95.460938 -44.90625 95.546875 -44.09375 C 95.628906 -43.28125 95.570312 -42.421875 95.375 -41.515625 C 95.175781 -40.609375 94.863281 -39.648438 94.4375 -38.640625 C 93.507812 -36.359375 92.570312 -34.5625 91.625 -33.25 C 90.6875 -31.945312 89.566406 -30.578125 88.265625 -29.140625 C 86.972656 -27.703125 85.425781 -26.082031 83.625 -24.28125 C 81.820312 -22.488281 79.816406 -20.640625 77.609375 -18.734375 C 75.398438 -16.828125 73.164062 -15.070312 70.90625 -13.46875 C 65.789062 -9.757812 61.476562 -7.734375 57.96875 -7.390625 C 53.769531 -6.960938 50.34375 -8.109375 47.6875 -10.828125 C 45.164062 -13.347656 43.539062 -16.898438 42.8125 -21.484375 C 37.257812 -14.503906 31.195312 -8.941406 24.625 -4.796875 C 20.601562 -2.285156 17.128906 -0.882812 14.203125 -0.59375 C 11.285156 -0.300781 8.691406 -0.394531 6.421875 -0.875 C 4.148438 -1.363281 2.117188 -2.226562 0.328125 -3.46875 C -3.546875 -6.101562 -5.75 -10.085938 -6.28125 -15.421875 C -7.039062 -23.046875 -5.039062 -30.679688 -0.28125 -38.328125 C 1.195312 -40.691406 2.925781 -42.804688 4.90625 -44.671875 C 9.226562 -48.023438 13.960938 -49.957031 19.109375 -50.46875 C 21.378906 -50.695312 23.066406 -50.15625 24.171875 -48.84375 C 24.617188 -48.332031 24.882812 -47.632812 24.96875 -46.75 C 25.050781 -45.875 24.898438 -44.832031 24.515625 -43.625 C 24.128906 -42.425781 23.640625 -41.164062 23.046875 -39.84375 C 22.453125 -38.519531 21.785156 -37.140625 21.046875 -35.703125 C 20.304688 -34.273438 19.632812 -32.894531 19.03125 -31.5625 C 17.613281 -28.351562 16.96875 -26.082031 17.09375 -24.75 C 17.226562 -23.425781 17.703125 -22.492188 18.515625 -21.953125 C 19.335938 -21.421875 20.300781 -21.207031 21.40625 -21.3125 C 23.84375 -21.5625 25.863281 -22.363281 27.46875 -23.71875 C 29.070312 -25.082031 30.640625 -26.617188 32.171875 -28.328125 L 36.53125 -33.546875 L 40.75 -38.875 C 43.738281 -42.613281 46.0625 -44.988281 47.71875 -46 C 49.375 -47.019531 50.601562 -47.46875 51.40625 -47.34375 C 52.21875 -47.21875 53.0625 -46.925781 53.9375 -46.46875 C 54.820312 -46.019531 55.703125 -45.460938 56.578125 -44.796875 C 58.609375 -43.179688 59.800781 -41.664062 60.15625 -40.25 C 60.320312 -39.332031 60.382812 -37.941406 60.34375 -36.078125 C 60.300781 -34.210938 60.316406 -32.941406 60.390625 -32.265625 Z M 60.390625 -32.265625 "/></g></g></g><g fill="#ffffff" fill-opacity="1"><g transform="translate(324.789044, 214.276489)"><g><path d="M 46.671875 -2.1875 C 39.617188 -1.476562 32.21875 -5.28125 24.46875 -13.59375 L 18.953125 -8.578125 C 13.035156 -3.390625 9.03125 -0.691406 6.9375 -0.484375 C 4.5625 -0.253906 2.269531 -0.925781 0.0625 -2.5 C -0.570312 -2.957031 -1.054688 -3.46875 -1.390625 -4.03125 C -2.796875 -5.164062 -3.765625 -8.421875 -4.296875 -13.796875 C -4.835938 -19.179688 -4.742188 -24.289062 -4.015625 -29.125 C -3.285156 -33.957031 -2.160156 -38.484375 -0.640625 -42.703125 C 1.753906 -49.328125 5.753906 -56.742188 11.359375 -64.953125 C 14.421875 -70.460938 18.382812 -75.132812 23.25 -78.96875 C 27.363281 -82.1875 30.90625 -83.945312 33.875 -84.25 C 35.488281 -84.40625 36.890625 -84.175781 38.078125 -83.5625 C 39.265625 -82.957031 39.914062 -82.035156 40.03125 -80.796875 C 40.15625 -79.554688 39.8125 -78.148438 39 -76.578125 C 29.34375 -58.941406 23.773438 -48.660156 22.296875 -45.734375 C 20.816406 -42.816406 19.789062 -40.578125 19.21875 -39.015625 C 18.644531 -37.460938 18.222656 -36.28125 17.953125 -35.46875 C 17.691406 -34.664062 17.445312 -33.832031 17.21875 -32.96875 C 16.6875 -30.976562 16.460938 -29.550781 16.546875 -28.6875 C 16.640625 -27.832031 17.335938 -27.472656 18.640625 -27.609375 C 19.859375 -27.734375 22.695312 -31.15625 27.15625 -37.875 L 33.203125 -47.140625 C 35.429688 -50.585938 37.847656 -53.050781 40.453125 -54.53125 C 43.066406 -56.007812 45.390625 -56.847656 47.421875 -57.046875 C 53.160156 -57.628906 56.171875 -56.53125 56.453125 -53.75 C 56.703125 -51.238281 55.148438 -47.519531 51.796875 -42.59375 C 51.421875 -42.0625 50.863281 -41.347656 50.125 -40.453125 L 43.859375 -33.359375 L 39.65625 -28.8125 C 43.28125 -25.351562 46.734375 -23.007812 50.015625 -21.78125 C 50.773438 -21.507812 51.40625 -21.398438 51.90625 -21.453125 C 52.40625 -21.503906 53.273438 -21.910156 54.515625 -22.671875 C 55.753906 -23.441406 57.140625 -24.410156 58.671875 -25.578125 C 60.203125 -26.753906 61.816406 -28.078125 63.515625 -29.546875 L 76.609375 -41.28125 C 77.742188 -42.363281 78.929688 -42.96875 80.171875 -43.09375 C 82.753906 -43.351562 84.15625 -42.414062 84.375 -40.28125 C 84.65625 -37.488281 83.617188 -34.101562 81.265625 -30.125 C 80.554688 -28.945312 79.859375 -27.941406 79.171875 -27.109375 L 76.1875 -23.78125 C 67.820312 -14.289062 60.03125 -7.742188 52.8125 -4.140625 C 50.632812 -3.023438 48.585938 -2.375 46.671875 -2.1875 Z M 46.671875 -2.1875 "/></g></g></g><g fill="#ffffff" fill-opacity="1"><g transform="translate(403.73634, 206.366792)"><g><path d="M 18.734375 -46.640625 C 18.734375 -46.640625 18.367188 -46.925781 17.640625 -47.5 C 17.222656 -47.875 16.992188 -48.253906 16.953125 -48.640625 C 16.878906 -49.367188 17.253906 -49.976562 18.078125 -50.46875 C 18.078125 -50.46875 18.894531 -50.960938 20.53125 -51.953125 C 24.394531 -54.253906 27.132812 -56.390625 28.75 -58.359375 C 25.613281 -58.390625 23.34375 -59.21875 21.9375 -60.84375 C 21.101562 -61.738281 20.617188 -62.863281 20.484375 -64.21875 C 20.347656 -65.582031 20.644531 -66.96875 21.375 -68.375 C 22.113281 -69.789062 23.132812 -71.082031 24.4375 -72.25 C 27.300781 -74.800781 30.757812 -76.28125 34.8125 -76.6875 C 39.59375 -77.164062 42.972656 -76.34375 44.953125 -74.21875 C 45.703125 -73.414062 46.160156 -72.15625 46.328125 -70.4375 C 46.503906 -68.71875 46.238281 -66.875 45.53125 -64.90625 C 44.832031 -62.945312 43.84375 -61.101562 42.5625 -59.375 C 41.289062 -57.644531 39.8125 -56.035156 38.125 -54.546875 C 36.4375 -53.066406 34.71875 -51.75 32.96875 -50.59375 C 25.914062 -45.9375 21.171875 -44.617188 18.734375 -46.640625 Z M 18.734375 -46.640625 "/></g></g></g><g fill="#ffffff" fill-opacity="1"><g transform="translate(456.385058, 201.091939)"><g><path d="M 27.671875 -53.515625 C 28.066406 -52.859375 28.320312 -51.96875 28.4375 -50.84375 C 28.550781 -49.726562 28.117188 -48.410156 27.140625 -46.890625 C 28.109375 -46.054688 29.351562 -45.097656 30.875 -44.015625 C 32.394531 -42.929688 33.878906 -41.734375 35.328125 -40.421875 C 38.847656 -37.191406 40.769531 -33.960938 41.09375 -30.734375 C 41.300781 -28.609375 40.097656 -25.863281 37.484375 -22.5 C 36.691406 -21.457031 35.800781 -20.46875 34.8125 -19.53125 C 38.257812 -21.257812 42.285156 -24.421875 46.890625 -29.015625 L 52.4375 -34.59375 C 55.65625 -37.863281 57.832031 -39.78125 58.96875 -40.34375 C 60.101562 -40.90625 61.148438 -41.234375 62.109375 -41.328125 C 63.078125 -41.429688 64.039062 -41.285156 65 -40.890625 C 65.957031 -40.492188 66.488281 -39.753906 66.59375 -38.671875 C 66.707031 -37.585938 66.644531 -36.519531 66.40625 -35.46875 C 66.164062 -34.425781 65.847656 -33.453125 65.453125 -32.546875 C 64.878906 -31.242188 64.003906 -29.875 62.828125 -28.4375 C 59.566406 -24.664062 56.382812 -21.191406 53.28125 -18.015625 C 50.175781 -14.835938 46.921875 -12.050781 43.515625 -9.65625 C 36.316406 -4.632812 28.070312 -1.660156 18.78125 -0.734375 C 13.59375 -0.210938 8.957031 -1.082031 4.875 -3.34375 C 3.175781 -4.300781 1.847656 -5.328125 0.890625 -6.421875 C -0.0664062 -7.523438 -0.578125 -8.410156 -0.640625 -9.078125 C -0.703125 -9.753906 -0.550781 -10.484375 -0.1875 -11.265625 C 0.175781 -12.046875 0.695312 -12.867188 1.375 -13.734375 C 2.0625 -14.597656 2.851562 -15.476562 3.75 -16.375 C 4.65625 -17.269531 5.585938 -18.070312 6.546875 -18.78125 C 8.816406 -20.4375 10.546875 -21.320312 11.734375 -21.4375 C 12.921875 -21.5625 13.835938 -21.503906 14.484375 -21.265625 C 15.128906 -21.035156 15.726562 -20.773438 16.28125 -20.484375 C 17.789062 -19.660156 18.835938 -19.28125 19.421875 -19.34375 C 20.835938 -19.476562 21.445312 -20.515625 21.25 -22.453125 C 21.070312 -24.234375 19.910156 -26.28125 17.765625 -28.59375 C 16.910156 -29.5625 16.019531 -30.5 15.09375 -31.40625 C 14.164062 -32.320312 13.375 -33.234375 12.71875 -34.140625 C 11.75 -32.765625 10.503906 -31.320312 8.984375 -29.8125 L 4.421875 -25.078125 C 1.234375 -21.753906 -1.835938 -20.007812 -4.796875 -19.84375 C -6.523438 -19.800781 -7.578125 -21.625 -7.953125 -25.3125 C -8.015625 -25.957031 -8.023438 -26.597656 -7.984375 -27.234375 C -7.910156 -28.316406 -6.988281 -29.707031 -5.21875 -31.40625 C -3.445312 -33.113281 -2.148438 -34.296875 -1.328125 -34.953125 C -0.515625 -35.609375 0.179688 -36.1875 0.765625 -36.6875 L 5.859375 -40.953125 C 5.503906 -44.453125 7.207031 -47.867188 10.96875 -51.203125 C 14.539062 -54.347656 18.21875 -56.113281 22 -56.5 C 24.40625 -56.738281 26.296875 -55.742188 27.671875 -53.515625 Z M 27.671875 -53.515625 "/></g></g></g><g fill="#ff0080" fill-opacity="1"><g transform="translate(86.071346, 452.267221)"><g><path d="M 25.171875 -11 C 23.367188 -13.46875 22.546875 -15.960938 22.703125 -18.484375 C 22.859375 -21.015625 23.726562 -24.390625 25.3125 -28.609375 C 26.894531 -32.828125 29.101562 -38.132812 31.9375 -44.53125 L 41.8125 -66.03125 L 54.046875 -91.625 L 67.96875 -119.28125 L 82.6875 -147.03125 C 61.46875 -139.4375 45.492188 -131.316406 34.765625 -122.671875 C 33.003906 -121.222656 31.519531 -119.75 30.3125 -118.25 L 26.140625 -113.1875 C 23.617188 -110.101562 21.003906 -108.425781 18.296875 -108.15625 C 15.585938 -107.882812 13.453125 -108.015625 11.890625 -108.546875 C 10.335938 -109.078125 9.0625 -109.835938 8.0625 -110.828125 C 5.53125 -113.222656 4.828125 -116.070312 5.953125 -119.375 C 8.585938 -132.226562 12.867188 -145.523438 18.796875 -159.265625 C 22.035156 -166.890625 24.78125 -171.351562 27.03125 -172.65625 C 43.457031 -181.78125 78.6875 -190.738281 132.71875 -199.53125 C 150.3125 -202.394531 168.863281 -204.800781 188.375 -206.75 C 201.101562 -208.03125 213.664062 -204.6875 226.0625 -196.71875 C 239.925781 -187.613281 247.640625 -175.242188 249.203125 -159.609375 C 251.253906 -139.191406 235.671875 -118.109375 202.453125 -96.359375 C 184.046875 -84.210938 166.507812 -75.25 149.84375 -69.46875 C 145.519531 -68.03125 142.160156 -67.191406 139.765625 -66.953125 C 137.378906 -66.710938 134.640625 -66.757812 131.546875 -67.09375 C 128.460938 -67.425781 125.640625 -68.054688 123.078125 -68.984375 C 117.003906 -71.304688 113.757812 -74.5 113.34375 -78.5625 C 112.769531 -84.332031 117.742188 -90.753906 128.265625 -97.828125 L 155.828125 -116.453125 C 172.140625 -127.398438 182.125 -135.15625 185.78125 -139.71875 C 189.4375 -144.28125 191.128906 -147.890625 190.859375 -150.546875 C 190.597656 -153.210938 189.832031 -155.625 188.5625 -157.78125 C 187.300781 -159.9375 185.671875 -161.828125 183.671875 -163.453125 C 179.398438 -166.953125 175.050781 -168.476562 170.625 -168.03125 C 161.414062 -167.101562 150.382812 -165.269531 137.53125 -162.53125 L 123.890625 -131.734375 C 106.617188 -91.234375 95.71875 -55.289062 91.1875 -23.90625 C 89.320312 -11.6875 78.316406 -4.566406 58.171875 -2.546875 C 41.546875 -0.878906 30.546875 -3.695312 25.171875 -11 Z M 25.171875 -11 "/></g></g><g transform="translate(339.42869, 426.883453)"><g><path d="M 150.5625 -111.6875 C 156.34375 -112.257812 159.472656 -110.15625 159.953125 -105.375 C 160.535156 -99.5 157.707031 -92.148438 151.46875 -83.328125 C 141.1875 -68.617188 128.78125 -54.054688 114.25 -39.640625 C 90.582031 -16.460938 68.632812 -3.859375 48.40625 -1.828125 C 33.863281 -0.378906 21.304688 -5.507812 10.734375 -17.21875 C -0.242188 -29.445312 -6.847656 -46.664062 -9.078125 -68.875 C -12.003906 -98.050781 -1.007812 -131.722656 23.90625 -169.890625 C 39.695312 -194.179688 55.191406 -211.148438 70.390625 -220.796875 C 75.097656 -223.828125 78.785156 -225.472656 81.453125 -225.734375 C 84.117188 -226.003906 86.597656 -225.820312 88.890625 -225.1875 C 91.191406 -224.550781 93.367188 -223.554688 95.421875 -222.203125 C 100.210938 -218.953125 102.867188 -214.707031 103.390625 -209.46875 C 103.910156 -204.226562 103.085938 -197.867188 100.921875 -190.390625 C 98.765625 -182.921875 95.335938 -174.847656 90.640625 -166.171875 C 80.722656 -147.753906 66.617188 -129.648438 48.328125 -111.859375 C 44.160156 -101.492188 42.769531 -89.394531 44.15625 -75.5625 C 44.78125 -69.332031 47.351562 -63.671875 51.875 -58.578125 C 56.5 -53.472656 61.242188 -51.164062 66.109375 -51.65625 C 72.796875 -52.320312 84.882812 -60.503906 102.375 -76.203125 L 124.625 -97.1875 C 133.695312 -106.03125 142.34375 -110.863281 150.5625 -111.6875 Z M 150.5625 -111.6875 "/></g></g><g transform="translate(477.759091, 413.024187)"><g><path d="M 225.140625 -125.3125 C 228.035156 -125.601562 229.726562 -123.316406 230.21875 -118.453125 C 231.050781 -110.046875 226.269531 -98.570312 215.875 -84.03125 L 208.921875 -75.390625 C 187.867188 -49.648438 167.394531 -31.863281 147.5 -22.03125 C 135.15625 -15.957031 125.921875 -15.253906 119.796875 -19.921875 C 114.742188 -23.890625 110.367188 -30.664062 106.671875 -40.25 L 102.25 -51.703125 L 75.171875 -31.078125 L 59.4375 -19.921875 C 40.664062 -7.085938 26.3125 -0.167969 16.375 0.828125 C 3.632812 2.097656 -7.472656 -1.757812 -16.953125 -10.75 C -26.015625 -19.25 -31.160156 -29.640625 -32.390625 -41.921875 C -33.597656 -54.015625 -29.847656 -65.285156 -21.140625 -75.734375 C -8.671875 -90.679688 11.894531 -105.289062 40.5625 -119.5625 C 67.6875 -132.945312 89.914062 -140.503906 107.25 -142.234375 C 113.132812 -142.828125 116.367188 -140.238281 116.953125 -134.46875 C 117.347656 -130.488281 116.875 -127.425781 115.53125 -125.28125 C 114.1875 -123.144531 111.226562 -120.796875 106.65625 -118.234375 L 90.328125 -109.21875 C 66.097656 -96.113281 48.679688 -83.285156 38.078125 -70.734375 C 35.046875 -67.222656 33.675781 -63.976562 33.96875 -61 C 34.269531 -58.019531 36.816406 -56.773438 41.609375 -57.265625 C 46.304688 -57.734375 56.726562 -63.882812 72.875 -75.71875 L 83.453125 -83.484375 C 99.828125 -95.710938 113.890625 -102.410156 125.640625 -103.578125 C 135.578125 -104.578125 142.609375 -100.859375 146.734375 -92.421875 C 147.785156 -90.148438 148.789062 -87.851562 149.75 -85.53125 C 150.707031 -83.21875 151.644531 -81.148438 152.5625 -79.328125 C 154.632812 -75.066406 156.328125 -73 157.640625 -73.125 C 158.953125 -73.257812 160.757812 -74.101562 163.0625 -75.65625 C 165.375 -77.21875 167.894531 -79.160156 170.625 -81.484375 C 173.363281 -83.804688 176.1875 -86.34375 179.09375 -89.09375 L 194.171875 -103.890625 C 207.503906 -117.441406 217.828125 -124.582031 225.140625 -125.3125 Z M 225.140625 -125.3125 "/></g></g><g transform="translate(685.051462, 392.25565)"><g><path d="M 42.46875 -62.421875 C 42.882812 -58.265625 45.847656 -56.460938 51.359375 -57.015625 C 62.546875 -58.140625 80.203125 -74 104.328125 -104.59375 L 116.140625 -119.1875 C 124.203125 -128.851562 129.675781 -133.832031 132.5625 -134.125 C 135.457031 -134.414062 138.082031 -134.175781 140.4375 -133.40625 C 142.800781 -132.632812 144.914062 -131.566406 146.78125 -130.203125 C 150.625 -127.390625 152.722656 -124.195312 153.078125 -120.625 C 153.441406 -117.050781 153.453125 -113.082031 153.109375 -108.71875 C 152.765625 -104.363281 152.050781 -99.4375 150.96875 -93.9375 C 148.976562 -83.707031 144.9375 -69.851562 138.84375 -52.375 L 134.484375 -39.890625 L 155.4375 -63.0625 L 198.53125 -108.15625 C 202.957031 -112.238281 206.753906 -114.441406 209.921875 -114.765625 C 216.773438 -115.453125 220.53125 -112.5 221.1875 -105.90625 C 221.863281 -99.144531 218.316406 -89.984375 210.546875 -78.421875 C 208.171875 -74.804688 205.546875 -71.398438 202.671875 -68.203125 L 173.484375 -37.234375 L 116.4375 21.71875 C 111.40625 27.0625 107.632812 31.273438 105.125 34.359375 C 102.3125 40.109375 100.113281 44.40625 98.53125 47.25 C 96.945312 50.101562 95.398438 53.132812 93.890625 56.34375 C 92.390625 59.550781 90.894531 62.328125 89.40625 64.671875 C 86.164062 69.722656 82.691406 72.4375 78.984375 72.8125 C 75.109375 73.195312 71.207031 71.992188 67.28125 69.203125 C 60.007812 64.003906 56.140625 59.097656 55.671875 54.484375 C 55.210938 49.878906 55.941406 44.40625 57.859375 38.0625 C 59.785156 31.71875 62.382812 24.410156 65.65625 16.140625 L 89.078125 -39.71875 C 76.492188 -25.863281 66.476562 -16.535156 59.03125 -11.734375 C 51.582031 -6.929688 45.234375 -3.601562 39.984375 -1.75 C 34.742188 0.101562 29.117188 1.328125 23.109375 1.921875 C 17.109375 2.523438 11.722656 1.808594 6.953125 -0.21875 C 2.191406 -2.25 -1.890625 -5.191406 -5.296875 -9.046875 C -11.898438 -16.691406 -15.863281 -27.109375 -17.1875 -40.296875 C -18.582031 -54.296875 -16.441406 -68.460938 -10.765625 -82.796875 C -5.316406 -96.859375 2.550781 -108.503906 12.84375 -117.734375 C 23.707031 -127.578125 35.328125 -133.117188 47.703125 -134.359375 C 60.078125 -135.597656 66.75 -131.382812 67.71875 -121.71875 C 68.332031 -115.664062 64.082031 -106.1875 54.96875 -93.28125 C 45.863281 -80.375 41.695312 -70.085938 42.46875 -62.421875 Z M 42.46875 -62.421875 "/></g></g><g transform="translate(892.343833, 371.487113)"><g><path d="M 150.5625 -111.6875 C 156.34375 -112.257812 159.472656 -110.15625 159.953125 -105.375 C 160.535156 -99.5 157.707031 -92.148438 151.46875 -83.328125 C 141.1875 -68.617188 128.78125 -54.054688 114.25 -39.640625 C 90.582031 -16.460938 68.632812 -3.859375 48.40625 -1.828125 C 33.863281 -0.378906 21.304688 -5.507812 10.734375 -17.21875 C -0.242188 -29.445312 -6.847656 -46.664062 -9.078125 -68.875 C -12.003906 -98.050781 -1.007812 -131.722656 23.90625 -169.890625 C 39.695312 -194.179688 55.191406 -211.148438 70.390625 -220.796875 C 75.097656 -223.828125 78.785156 -225.472656 81.453125 -225.734375 C 84.117188 -226.003906 86.597656 -225.820312 88.890625 -225.1875 C 91.191406 -224.550781 93.367188 -223.554688 95.421875 -222.203125 C 100.210938 -218.953125 102.867188 -214.707031 103.390625 -209.46875 C 103.910156 -204.226562 103.085938 -197.867188 100.921875 -190.390625 C 98.765625 -182.921875 95.335938 -174.847656 90.640625 -166.171875 C 80.722656 -147.753906 66.617188 -129.648438 48.328125 -111.859375 C 44.160156 -101.492188 42.769531 -89.394531 44.15625 -75.5625 C 44.78125 -69.332031 47.351562 -63.671875 51.875 -58.578125 C 56.5 -53.472656 61.242188 -51.164062 66.109375 -51.65625 C 72.796875 -52.320312 84.882812 -60.503906 102.375 -76.203125 L 124.625 -97.1875 C 133.695312 -106.03125 142.34375 -110.863281 150.5625 -111.6875 Z M 150.5625 -111.6875 "/></g></g></g><g fill="#ff0080" fill-opacity="1"><g transform="translate(1030.674243, 357.627846)"><g><path d="M 102.03125 -168.484375 C 99.632812 -166.015625 96.96875 -163.925781 94.03125 -162.21875 C 91.101562 -160.507812 87.742188 -159.460938 83.953125 -159.078125 C 80.160156 -158.703125 76.4375 -158.96875 72.78125 -159.875 C 69.132812 -160.789062 65.894531 -162.242188 63.0625 -164.234375 C 56.875 -168.535156 53.398438 -174.484375 52.640625 -182.078125 C 51.472656 -193.722656 60.359375 -203.367188 79.296875 -211.015625 C 85.691406 -213.671875 91.015625 -215.210938 95.265625 -215.640625 C 99.515625 -216.066406 102.742188 -215.910156 104.953125 -215.171875 C 107.171875 -214.429688 109.035156 -213.363281 110.546875 -211.96875 C 113.554688 -209.164062 115.222656 -206.160156 115.546875 -202.953125 C 115.867188 -199.753906 115.773438 -196.800781 115.265625 -194.09375 C 114.765625 -191.394531 113.929688 -188.570312 112.765625 -185.625 C 111.597656 -182.6875 110.113281 -179.710938 108.3125 -176.703125 C 106.519531 -173.703125 104.425781 -170.960938 102.03125 -168.484375 Z M 82.828125 -15.890625 C 76.316406 -11.628906 69.921875 -8.113281 63.640625 -5.34375 C 57.359375 -2.570312 51.078125 -0.867188 44.796875 -0.234375 C 38.515625 0.386719 31.859375 -0.472656 24.828125 -2.828125 C 17.796875 -5.179688 11.40625 -8.625 5.65625 -13.15625 C -7.132812 -23.28125 -14.21875 -35.25 -15.59375 -49.0625 C -16.875 -61.800781 -14.375 -75.097656 -8.09375 -88.953125 C -2.332031 -101.484375 5.519531 -112.304688 15.46875 -121.421875 C 25.414062 -130.535156 35 -135.550781 44.21875 -136.46875 C 57.394531 -137.789062 64.8125 -134.800781 66.46875 -127.5 C 66.96875 -125.269531 67.363281 -122.664062 67.65625 -119.6875 C 67.957031 -116.707031 67.597656 -113.222656 66.578125 -109.234375 C 65.566406 -105.253906 64.144531 -101.234375 62.3125 -97.171875 C 60.488281 -93.109375 58.425781 -89.113281 56.125 -85.1875 C 53.820312 -81.257812 51.601562 -77.6875 49.46875 -74.46875 C 45.332031 -68.3125 42 -63.828125 39.46875 -61.015625 C 39.769531 -57.941406 42.382812 -55.015625 47.3125 -52.234375 C 51.957031 -49.585938 55.789062 -48.414062 58.8125 -48.71875 C 61.832031 -49.019531 65.320312 -50.097656 69.28125 -51.953125 C 73.25 -53.804688 77.300781 -56.175781 81.4375 -59.0625 C 85.582031 -61.945312 89.78125 -65.195312 94.03125 -68.8125 C 98.28125 -72.4375 102.445312 -76.132812 106.53125 -79.90625 L 129.390625 -101.78125 C 138.523438 -109.894531 146.160156 -114.257812 152.296875 -114.875 C 154.734375 -115.113281 156.691406 -114.414062 158.171875 -112.78125 C 159.660156 -111.15625 160.523438 -109.164062 160.765625 -106.8125 C 161.003906 -104.46875 160.15625 -101.125 158.21875 -96.78125 C 156.28125 -92.4375 153.503906 -87.570312 149.890625 -82.1875 C 146.273438 -76.8125 141.984375 -71.140625 137.015625 -65.171875 C 132.046875 -59.203125 126.613281 -53.273438 120.71875 -47.390625 C 114.832031 -41.515625 108.671875 -35.859375 102.234375 -30.421875 C 95.804688 -24.992188 89.335938 -20.148438 82.828125 -15.890625 Z M 82.828125 -15.890625 "/></g></g></g><g fill="#ff0080" fill-opacity="1"><g transform="translate(1169.004576, 343.768587)"><g><path d="M 72.671875 -140.578125 C 73.753906 -138.847656 74.441406 -136.515625 74.734375 -133.578125 C 75.035156 -130.640625 73.875 -127.175781 71.25 -123.1875 C 73.851562 -120.96875 77.144531 -118.441406 81.125 -115.609375 C 85.101562 -112.773438 89 -109.632812 92.8125 -106.1875 C 102.050781 -97.71875 107.097656 -89.238281 107.953125 -80.75 C 108.515625 -75.144531 105.359375 -67.9375 98.484375 -59.125 C 96.390625 -56.363281 94.046875 -53.757812 91.453125 -51.3125 C 100.503906 -55.875 111.078125 -64.1875 123.171875 -76.25 L 137.734375 -90.84375 C 146.171875 -99.445312 151.890625 -104.488281 154.890625 -105.96875 C 157.898438 -107.457031 160.664062 -108.328125 163.1875 -108.578125 C 165.71875 -108.828125 168.242188 -108.4375 170.765625 -107.40625 C 173.285156 -106.382812 174.6875 -104.453125 174.96875 -101.609375 C 175.257812 -98.765625 175.082031 -95.960938 174.4375 -93.203125 C 173.800781 -90.453125 172.96875 -87.882812 171.9375 -85.5 C 170.457031 -82.070312 168.171875 -78.472656 165.078125 -74.703125 C 156.492188 -64.804688 148.125 -55.6875 139.96875 -47.34375 C 131.8125 -39 123.257812 -31.691406 114.3125 -25.421875 C 95.382812 -12.203125 73.726562 -4.375 49.34375 -1.9375 C 35.707031 -0.5625 23.523438 -2.851562 12.796875 -8.8125 C 8.359375 -11.28125 4.878906 -13.957031 2.359375 -16.84375 C -0.160156 -19.738281 -1.507812 -22.066406 -1.6875 -23.828125 C -1.863281 -25.597656 -1.460938 -27.515625 -0.484375 -29.578125 C 0.480469 -31.640625 1.859375 -33.804688 3.640625 -36.078125 C 5.421875 -38.359375 7.488281 -40.664062 9.84375 -43 C 12.207031 -45.34375 14.671875 -47.460938 17.234375 -49.359375 C 23.179688 -53.691406 27.710938 -56.007812 30.828125 -56.3125 C 33.941406 -56.625 36.347656 -56.476562 38.046875 -55.875 C 39.753906 -55.28125 41.328125 -54.597656 42.765625 -53.828125 C 46.734375 -51.660156 49.484375 -50.65625 51.015625 -50.8125 C 54.710938 -51.1875 56.304688 -53.90625 55.796875 -58.96875 C 55.328125 -63.664062 52.285156 -69.0625 46.671875 -75.15625 C 44.410156 -77.65625 42.0625 -80.109375 39.625 -82.515625 C 37.195312 -84.921875 35.132812 -87.316406 33.4375 -89.703125 C 30.882812 -86.066406 27.613281 -82.269531 23.625 -78.3125 L 11.59375 -65.890625 C 3.269531 -57.117188 -4.800781 -52.523438 -12.625 -52.109375 C -17.15625 -52.015625 -19.90625 -56.800781 -20.875 -66.46875 C -21.050781 -68.175781 -21.085938 -69.859375 -20.984375 -71.515625 C -20.816406 -74.359375 -18.40625 -78.019531 -13.75 -82.5 C -9.09375 -86.976562 -5.679688 -90.078125 -3.515625 -91.796875 C -1.359375 -93.523438 0.46875 -95.054688 1.96875 -96.390625 L 15.359375 -107.59375 C 14.429688 -116.800781 18.914062 -125.773438 28.8125 -134.515625 C 38.207031 -142.765625 47.867188 -147.382812 57.796875 -148.375 C 64.117188 -149.007812 69.078125 -146.410156 72.671875 -140.578125 Z M 72.671875 -140.578125 "/></g></g></g><g fill="#ff0080" fill-opacity="1"><g transform="translate(1330.232048, 327.615273)"><g><path d="M 140.40625 -107.796875 C 149.257812 -108.679688 153.992188 -106.054688 154.609375 -99.921875 C 155.203125 -94.046875 151.8125 -86.039062 144.4375 -75.90625 L 138.484375 -68.34375 C 131.265625 -59.3125 122.703125 -50.285156 112.796875 -41.265625 C 102.890625 -32.242188 94.101562 -25.023438 86.4375 -19.609375 C 68.601562 -7.242188 52.007812 -0.289062 36.65625 1.25 C 22.195312 2.695312 9.976562 -0.453125 0 -8.203125 C -8.601562 -14.921875 -13.320312 -22.4375 -14.15625 -30.75 C -14.988281 -39.0625 -15.003906 -47.40625 -14.203125 -55.78125 C -13.398438 -64.164062 -12.082031 -72.414062 -10.25 -80.53125 C -6.613281 -97.03125 -2.242188 -111.195312 2.859375 -123.03125 C 4.171875 -126.269531 4.785156 -128.335938 4.703125 -129.234375 L -12.765625 -127.484375 C -19.359375 -126.828125 -24.613281 -127.851562 -28.53125 -130.5625 C -32.457031 -133.269531 -34.613281 -136.5625 -35 -140.4375 C -35.382812 -144.320312 -34.945312 -147.242188 -33.6875 -149.203125 C -32.425781 -151.160156 -30.753906 -152.648438 -28.671875 -153.671875 C -25.722656 -155.242188 -21.269531 -156.332031 -15.3125 -156.9375 L 17.890625 -160.125 C 18.585938 -160.46875 19.84375 -162.550781 21.65625 -166.375 L 28.484375 -181.421875 C 31.367188 -188.097656 34.445312 -193.101562 37.71875 -196.4375 C 40.988281 -199.78125 45.035156 -201.691406 49.859375 -202.171875 C 54.691406 -202.660156 58.800781 -202.617188 62.1875 -202.046875 C 65.582031 -201.472656 68.476562 -200.625 70.875 -199.5 C 75.582031 -197.050781 78.109375 -194.109375 78.453125 -190.671875 C 78.597656 -189.234375 78.296875 -187.25 77.546875 -184.71875 L 71.8125 -165.53125 L 136.15625 -172.109375 C 141.757812 -172.671875 144.851562 -170.0625 145.4375 -164.28125 C 146.8125 -150.550781 135.253906 -142.457031 110.765625 -140 L 61.203125 -134.890625 C 60.171875 -134.242188 58.582031 -131.445312 56.4375 -126.5 L 51.46875 -114.625 C 50.207031 -111.675781 49.332031 -109.445312 48.84375 -107.9375 L 46.53125 -101 C 41.851562 -86.75 39.816406 -76.597656 40.421875 -70.546875 C 41.023438 -64.492188 43.132812 -59.597656 46.75 -55.859375 C 50.363281 -52.117188 54.832031 -50.515625 60.15625 -51.046875 C 65.488281 -51.585938 70.601562 -53.148438 75.5 -55.734375 C 80.394531 -58.328125 85.128906 -61.351562 89.703125 -64.8125 C 98.003906 -71.21875 104.445312 -77.019531 109.03125 -82.21875 C 113.613281 -87.414062 117.460938 -91.40625 120.578125 -94.1875 C 120.578125 -94.1875 123.515625 -96.71875 129.390625 -101.78125 C 133.929688 -105.507812 137.601562 -107.515625 140.40625 -107.796875 Z M 140.40625 -107.796875 "/></g></g></g></g></g><g clip-path="url(#9f8e36a9cc)"><path fill="#1e1d23" d="M 1011.691406 989.847656 C 1023.617188 967.949219 1041.507812 950.664062 1065.363281 937.984375 L 1065.359375 937.984375 C 1065.882812 937.664062 1065.886719 937.34375 1065.375 937.03125 C 1044.703125 925.5625 1027.59375 907.828125 1014.042969 883.832031 L 1014.039062 883.828125 C 1014.007812 883.773438 1013.976562 883.71875 1013.949219 883.664062 C 1013.570312 883.050781 1013.164062 883.089844 1012.726562 883.78125 C 999.105469 906.691406 981.179688 923.867188 958.953125 935.308594 L 958.957031 935.308594 C 958.664062 935.457031 958.660156 935.601562 958.941406 935.75 L 958.9375 935.75 C 980.496094 947.519531 997.886719 965.542969 1011.097656 989.824219 L 1011.097656 989.820312 C 1011.300781 990.160156 1011.496094 990.164062 1011.691406 989.84375 Z M 1011.691406 989.847656 " fill-opacity="1" fill-rule="evenodd"/></g><g clip-path="url(#e2e031afc5)"><path fill="#fba840" d="M 1004.929688 988.964844 C 1016.855469 967.066406 1034.742188 949.78125 1058.601562 937.101562 L 1058.597656 937.101562 C 1059.121094 936.777344 1059.125 936.460938 1058.609375 936.144531 L 1058.613281 936.148438 C 1037.941406 924.679688 1020.832031 906.949219 1007.28125 882.949219 C 1007.25 882.894531 1007.21875 882.835938 1007.1875 882.78125 C 1006.808594 882.167969 1006.402344 882.207031 1005.964844 882.898438 C 992.34375 905.808594 974.417969 922.984375 952.195312 934.425781 C 951.902344 934.570312 951.898438 934.71875 952.179688 934.867188 L 952.175781 934.867188 C 973.738281 946.632812 991.125 964.660156 1004.335938 988.941406 L 1004.335938 988.9375 C 1004.539062 989.277344 1004.738281 989.285156 1004.929688 988.960938 Z M 1004.929688 988.964844 " fill-opacity="1" fill-rule="evenodd"/></g><g clip-path="url(#5bd9332493)"><g clip-path="url(#f043e3233e)"><g clip-path="url(#7119514c20)"><path fill="#1e1d23" d="M 279.652344 998.417969 L 330.855469 1014.074219 L 346.632812 962.472656 L 397.832031 978.128906 L 413.613281 926.527344 L 478.953125 946.507812 L 458.972656 1011.847656 L 407.773438 996.191406 L 391.996094 1047.792969 L 340.796875 1032.136719 L 325.015625 1083.742188 L 259.671875 1063.761719 Z M 279.652344 998.417969 " fill-opacity="1" fill-rule="evenodd"/></g></g></g><g clip-path="url(#2feaa2e2b6)"><g clip-path="url(#0f1d4cdd13)"><g clip-path="url(#55f8e7bba6)"><path fill="#00ffff" d="M 274.835938 987.488281 L 326.03125 1003.144531 L 341.8125 951.539062 L 393.015625 967.195312 L 408.792969 915.59375 L 474.132812 935.574219 L 454.152344 1000.917969 L 402.957031 985.261719 L 387.175781 1036.863281 L 335.976562 1021.207031 L 320.199219 1072.808594 L 254.855469 1052.828125 Z M 274.835938 987.488281 " fill-opacity="1" fill-rule="evenodd"/></g></g></g><path fill="#1e1d23" d="M 632.019531 538.648438 C 462.980469 528.925781 463.640625 518.585938 630.859375 507.4375 C 636.753906 420.59375 644.65625 420.964844 654.675781 507.4375 C 836.113281 515.167969 836.113281 525.601562 654.675781 538.738281 C 649.496094 641.003906 640.570312 639.167969 632.019531 538.648438 Z M 632.019531 538.648438 " fill-opacity="1" fill-rule="evenodd"/><path fill="#fba840" d="M 626.222656 529.90625 C 457.1875 520.1875 457.84375 509.84375 625.066406 498.699219 C 630.960938 411.851562 638.859375 412.222656 648.882812 498.699219 C 830.320312 506.429688 830.320312 516.859375 648.882812 529.996094 C 643.699219 632.261719 634.777344 630.425781 626.222656 529.90625 Z M 626.222656 529.90625 " fill-opacity="1" fill-rule="evenodd"/><g clip-path="url(#32872c4b18)"><g clip-path="url(#58f2947ca1)"><g clip-path="url(#591fb07b48)"><path fill="#1e1d23" d="M 1041.285156 494.824219 L 1090.789062 510.578125 L 1106.667969 460.6875 L 1156.167969 476.441406 L 1172.046875 426.550781 L 1235.21875 446.660156 L 1215.113281 509.832031 L 1165.613281 494.078125 L 1149.734375 543.96875 L 1100.234375 528.210938 L 1084.355469 578.105469 L 1021.179688 558 Z M 1041.285156 494.824219 " fill-opacity="1" fill-rule="evenodd"/></g></g></g><g clip-path="url(#a43ec5f519)"><g clip-path="url(#54262877c7)"><g clip-path="url(#3a2f21d850)"><path fill="#00ffff" d="M 1036.730469 484.167969 L 1086.230469 499.921875 L 1102.109375 450.027344 L 1151.613281 465.78125 L 1167.492188 415.890625 L 1230.664062 436 L 1210.558594 499.175781 L 1161.058594 483.421875 L 1145.179688 533.308594 L 1095.679688 517.554688 L 1079.800781 567.445312 L 1016.625 547.339844 Z M 1036.730469 484.167969 " fill-opacity="1" fill-rule="evenodd"/></g></g></g></svg>